<?xml version="1.0" encoding="utf-8"?>
<!-- Generator: Adobe Illustrator 17.0.0, SVG Export Plug-In . SVG Version: 6.00 Build 0)  -->
<!DOCTYPE svg PUBLIC "-//W3C//DTD SVG 1.1//EN" "http://www.w3.org/Graphics/SVG/1.1/DTD/svg11.dtd">
<svg version="1.1" id="图层_1" xmlns="http://www.w3.org/2000/svg" xmlns:xlink="http://www.w3.org/1999/xlink" x="0px" y="0px"
	 width="18px" height="18px" viewBox="0 0 18 18" enable-background="new 0 0 18 18" xml:space="preserve">
<g>
	<path fill="#636363" d="M9.423,18H9.265l-6.12-4.129H1.888c-0.451,0-0.881-0.174-1.21-0.49c-0.337-0.323-0.522-0.752-0.522-1.207
		V6.866c0-0.455,0.185-0.884,0.522-1.207c0.329-0.316,0.759-0.49,1.21-0.49h1.238l6.12-4.719h0.176c0.936,0,1.697,0.761,1.697,1.697
		v14.156C11.12,17.239,10.358,18,9.423,18L9.423,18z M1.888,6.203c-0.378,0-0.698,0.303-0.698,0.663v5.308
		c0,0.359,0.32,0.662,0.698,0.662h1.572l6.099,4.115c0.3-0.063,0.525-0.33,0.525-0.648V2.147c0-0.313-0.218-0.575-0.509-0.645
		L3.479,6.203H1.888L1.888,6.203z M14.45,15.266c-0.165,0-0.327-0.078-0.427-0.225c-0.162-0.235-0.102-0.557,0.134-0.719
		c1.673-1.148,2.671-3.043,2.671-5.069c0-2.063-1.027-3.977-2.748-5.121c-0.238-0.158-0.303-0.479-0.145-0.717
		c0.158-0.238,0.479-0.303,0.717-0.144c2.01,1.336,3.21,3.572,3.21,5.982c0,2.367-1.167,4.581-3.12,5.922
		C14.653,15.236,14.551,15.266,14.45,15.266L14.45,15.266z M14.067,11.787c-0.165,0-0.327-0.078-0.427-0.224
		c-0.162-0.235-0.102-0.557,0.134-0.719c0.531-0.364,0.848-0.965,0.848-1.608c0-0.654-0.326-1.261-0.872-1.624
		c-0.238-0.158-0.303-0.479-0.144-0.717c0.158-0.238,0.479-0.303,0.717-0.144c0.835,0.555,1.334,1.484,1.334,2.486
		c0,0.984-0.485,1.903-1.297,2.461C14.27,11.758,14.168,11.787,14.067,11.787L14.067,11.787z M14.067,11.787"/>
</g>
<g>
</g>
<g>
</g>
<g>
</g>
<g>
</g>
<g>
</g>
<g>
</g>
</svg>
