<?xml version="1.0" encoding="utf-8"?>
<!-- Generator: Adobe Illustrator 17.0.0, SVG Export Plug-In . SVG Version: 6.00 Build 0)  -->
<!DOCTYPE svg PUBLIC "-//W3C//DTD SVG 1.1//EN" "http://www.w3.org/Graphics/SVG/1.1/DTD/svg11.dtd">
<svg version="1.1" id="图层_1" xmlns="http://www.w3.org/2000/svg" xmlns:xlink="http://www.w3.org/1999/xlink" x="0px" y="0px"
	 width="18px" height="18px" viewBox="0 0 18 18" enable-background="new 0 0 18 18" xml:space="preserve">
<g>
	<path fill="#666565" d="M9.003,15.361c0.097,0,0.194,0.023,0.282,0.071l4.306,2.319c0.259,0.139,0.592,0.121,0.835-0.045
		c0.238-0.164,0.358-0.439,0.311-0.717l-0.84-5.015c-0.032-0.189,0.03-0.383,0.167-0.52l3.62-3.615
		c0.198-0.198,0.265-0.482,0.175-0.743c-0.091-0.265-0.328-0.457-0.617-0.5l-4.938-0.735c-0.195-0.029-0.363-0.153-0.448-0.33
		L9.708,1.072C9.582,0.81,9.305,0.641,9.003,0.641c-0.302,0-0.579,0.169-0.706,0.431L6.152,5.53C6.067,5.708,5.898,5.831,5.704,5.86
		L0.765,6.596C0.481,6.638,0.239,6.835,0.148,7.097c-0.089,0.26-0.022,0.543,0.176,0.741l3.619,3.615
		c0.136,0.136,0.199,0.33,0.167,0.52l-0.839,5.014c-0.047,0.279,0.072,0.554,0.312,0.72c0.239,0.164,0.572,0.184,0.835,0.042
		l4.304-2.317C8.81,15.384,8.906,15.361,9.003,15.361L9.003,15.361z M9.003,15.361"/>
</g>
<g>
</g>
<g>
</g>
<g>
</g>
<g>
</g>
<g>
</g>
<g>
</g>
</svg>
