<?xml version="1.0" encoding="utf-8"?>
<!-- Generator: Adobe Illustrator 17.0.0, SVG Export Plug-In . SVG Version: 6.00 Build 0)  -->
<!DOCTYPE svg PUBLIC "-//W3C//DTD SVG 1.1//EN" "http://www.w3.org/Graphics/SVG/1.1/DTD/svg11.dtd">
<svg version="1.1" id="图层_1" xmlns="http://www.w3.org/2000/svg" xmlns:xlink="http://www.w3.org/1999/xlink" x="0px" y="0px"
	 width="18px" height="18px" viewBox="0 0 18 18" enable-background="new 0 0 18 18" xml:space="preserve">
<g>
	<path fill="#646464" d="M16.426,15.761c-0.417-1.084-1.014-2.059-1.775-2.896c-0.765-0.842-1.658-1.504-2.654-1.967
		c-0.189-0.088-0.38-0.168-0.574-0.24c0.428-0.242,0.826-0.544,1.183-0.901c1.036-1.036,1.607-2.414,1.607-3.88
		c0-1.466-0.571-2.843-1.607-3.879c-1.036-1.036-2.414-1.607-3.88-1.607c-1.466,0-2.843,0.571-3.88,1.607
		C3.81,3.033,3.24,4.411,3.24,5.877c0,1.466,0.571,2.843,1.607,3.88c0.357,0.357,0.755,0.659,1.183,0.901
		c-0.193,0.072-0.384,0.152-0.574,0.24c-0.995,0.463-1.888,1.125-2.654,1.967c-0.761,0.838-1.39,1.8-1.775,2.896
		C0.705,16.675,0.739,17.578,0.723,18h1.291c-0.043-3.012,2.822-6.538,6.713-6.538c3.891,0,6.831,3.655,6.842,6.538h1.291
		C16.836,17.185,16.856,16.88,16.426,15.761L16.426,15.761z M4.531,5.877c0-2.313,1.882-4.196,4.196-4.196
		c2.313,0,4.196,1.882,4.196,4.196c0,2.313-1.882,4.196-4.196,4.196C6.413,10.072,4.531,8.19,4.531,5.877L4.531,5.877z M4.531,5.877
		"/>
</g>
<g>
</g>
<g>
</g>
<g>
</g>
<g>
</g>
<g>
</g>
<g>
</g>
</svg>
