<?xml version="1.0" encoding="utf-8"?>
<!-- Generator: Adobe Illustrator 17.0.0, SVG Export Plug-In . SVG Version: 6.00 Build 0)  -->
<!DOCTYPE svg PUBLIC "-//W3C//DTD SVG 1.1//EN" "http://www.w3.org/Graphics/SVG/1.1/DTD/svg11.dtd">
<svg version="1.1" xmlns="http://www.w3.org/2000/svg" xmlns:xlink="http://www.w3.org/1999/xlink" x="0px" y="0px" width="29px"
	 height="11px" viewBox="0 0 29 11" enable-background="new 0 0 29 11" xml:space="preserve">
<g id="图层_1">
	<image display="none" overflow="visible" width="29" height="11" xlink:href="more.jpg" >
	</image>
</g>
<g id="图层_2">
	<path fill="none" stroke="#3C3C3E" stroke-miterlimit="10" d="M-0.906,2.312C0.127,1.717,2.25-0.938,5.25,1.924
		c2.273,2.167,3.914,2.096,7.062-0.472c2.781-2.269,5.312,0.872,5.312,0.872s2.938,2.79,6.562-0.367s6.75,0.655,6.75,0.655"/>
	<path fill="none" stroke="#3C3C3E" stroke-miterlimit="10" d="M-1.163,5.505c1.033-0.595,3.156-3.25,6.156-0.389
		c2.273,2.167,3.914,2.096,7.063-0.472c2.781-2.269,5.312,0.872,5.312,0.872s2.938,2.79,6.562-0.367s6.75,0.655,6.75,0.655"/>
	<path fill="none" stroke="#3C3C3E" stroke-miterlimit="10" d="M-1.163,8.756c1.033-0.595,3.156-3.25,6.156-0.389
		c2.273,2.167,3.914,2.096,7.063-0.472c2.781-2.269,5.312,0.872,5.312,0.872s2.938,2.79,6.562-0.367s6.75,0.655,6.75,0.655"/>
</g>
</svg>
