<?xml version="1.0" encoding="utf-8"?>
<!-- Generator: Adobe Illustrator 17.0.0, SVG Export Plug-In . SVG Version: 6.00 Build 0)  -->
<!DOCTYPE svg PUBLIC "-//W3C//DTD SVG 1.1//EN" "http://www.w3.org/Graphics/SVG/1.1/DTD/svg11.dtd">
<svg version="1.1" id="图层_1" xmlns="http://www.w3.org/2000/svg" xmlns:xlink="http://www.w3.org/1999/xlink" x="0px" y="0px"
	 width="31px" height="137.613px" viewBox="0 0 31 137.613" enable-background="new 0 0 31 137.613" xml:space="preserve">
<path fill="#FFFFFF" d="M9.86,58.886l-0.349-0.734c0.991-0.073,1.909-0.165,2.901-0.257c0.22-1.157-0.038-2.277-0.038-3.396
	l-0.715-0.404c0.386-0.275,0.734-0.532,1.157-0.808l1.322,0.532c0.111,0.147,0.202,0.312,0.33,0.496l-0.551,1.101v2.478
	c0.22-0.073,0.441-0.184,0.643-0.184c0.496,0.037,0.808-0.165,1.065-0.551c0.037-0.073,0.11-0.129,0.22-0.257l0.973,0.606
	l-0.092,0.606c-0.955,0.11-1.872,0.202-2.79,0.294v0.863c0.771,0.386,1.56,0.808,2.13,1.487c0,0.606-0.239,0.973-0.715,1.212
	c-0.35-0.092-0.496-0.33-0.607-0.624c-0.129-0.367-0.312-0.716-0.496-1.046c-0.055-0.11-0.184-0.184-0.349-0.312v2.167l-0.074,5.233
	c-0.018,0.643-0.257,1.175-0.825,1.56c-0.313-0.128-0.367-0.386-0.35-0.661c0-1.138,0.018-2.295,0.037-3.433
	c0-1.395,0-2.773,0.018-4.168c0-0.055-0.037-0.092-0.073-0.239c-1.34,2.148-2.681,4.223-4.866,5.545
	c0.936-1.084,1.964-2.093,2.625-3.379c0.679-1.285,1.34-2.571,1.762-4.076L9.86,58.886z M17.021,62.191
	c0.404-0.055,0.808-0.147,1.23-0.147c0.57,0,1.047-0.129,1.396-0.716c0.349,0.165,0.679,0.294,0.973,0.441l0.275,0.587
	c-0.459,0.661-0.239,1.377-0.165,2.074c0.037,0.22,0,0.441,0,0.679l-3.286,0.349c-0.239,0.587-0.422,1.121-0.643,1.635
	c-0.038,0.073-0.202,0.11-0.367,0.184c-0.092-0.165-0.258-0.294-0.258-0.441c-0.073-1.634-0.11-3.269-0.164-4.902
	c0-0.055,0.037-0.129,0.073-0.294C16.433,61.842,16.727,62.008,17.021,62.191z M17.15,59.437c0.551-0.698,0.973-1.469,1.193-2.331
	c0.018-0.092,0-0.202,0-0.33l-1.817,0.22l-0.46-1.01h2.277l0.312-1.892c-0.294-0.184-0.587-0.367-0.936-0.606l1.652-0.881
	c0.514,0.257,1.268,0.202,1.487,1.083c-0.202,0.33-0.422,0.716-0.716,1.248c-0.054,0.184-0.129,0.514-0.22,0.918
	c0.716,0.184,1.395-0.037,2.093,0.018l1.138-1.01c0.477,0.184,0.936,0.386,1.268,0.826c-0.037,0.184-0.092,0.367-0.147,0.569
	l-3.856,0.275l-0.037,0.073c0.129,0.055,0.258,0.11,0.386,0.129c0.46,0.11,0.919,0.22,1.396,0.312
	c0.514,0.11,0.808,0.477,0.991,0.936c0.165,0.386-0.073,0.679-0.312,0.937c-0.164,0.184-0.386,0.294-0.569,0.422
	c-0.496-0.11-0.753-0.422-0.936-0.826c-0.349-0.789-1.121-1.175-1.708-1.909c-0.33,1.175-1.01,1.946-1.836,2.589
	c-0.165,0.129-0.349,0.239-0.532,0.367L17.15,59.437z M16.452,60.704c-0.11-0.257-0.201-0.532-0.312-0.844
	c0.092-0.037,0.165-0.11,0.258-0.11c1.175-0.037,2.35-0.055,3.526-0.11c1.12-0.037,2.258-0.11,3.379-0.202
	c0.184-0.018,0.386-0.129,0.532-0.239c0.312-0.239,0.569-0.514,0.936-0.826c0.404,0.312,0.789,0.624,1.212,0.936l-0.184,0.624
	c-0.991,0.055-1.983,0.092-3.084,0.129c0.366,0.349,0.936,0.313,1.046,0.9c-0.661,1.083-0.202,2.331-0.258,3.544
	c-0.037,0.789,0.055,1.56,0,2.331c-0.073,1.212-0.606,2.222-1.762,2.901l-0.752-1.322l-0.074,0.055l-0.752-0.275v-0.165l1.303-0.165
	c0.258-0.147,0.258-0.441,0.258-0.716l-0.055-4.02l-0.037-2.148c-0.018-0.275-0.073-0.551-0.091-0.826L16.452,60.704z
	 M17.187,62.944l0.164,1.947l1.598-0.275v-2.166h-1.433L17.187,62.944z"/>
<path fill="#FFFFFF" d="M15.974,128.873c-0.129-0.826-0.624-1.303-1.414-1.506l-0.092-0.054c0-0.018,0-0.037-0.037-0.11l2.056-0.165
	c0.625-2.057,0.441-4.186,0.533-6.298c-0.184-0.037-0.295-0.055-0.404-0.055c-1.762-0.037-3.433,0.349-5.067,0.991
	c-0.607,0.239-1.268,0.366-1.947,0.551c-0.128-0.349-0.202-0.735-0.386-1.065c-0.184-0.312-0.459-0.57-0.698-0.863
	c2.772-0.147,5.545-0.275,8.372-0.404c0.11-0.678-0.018-1.285-0.129-1.909c-0.091-0.607-0.22-1.231-0.366-1.964l1.285,0.753
	c0.607-0.643,1.231-1.285,1.836-1.946l-0.054-0.111c-2.387,0.037-4.7,0.46-6.996,1.121l-1.01-1.726l8.831-0.165
	c0.35-0.404,0.679-0.808,1.011-1.212c0.936,0.496,1.597,1.248,1.744,1.964c-0.147,0.477-0.422,0.753-0.973,0.734
	c-0.257,0-0.514,0.129-0.753,0.239l-3.121,1.469c0.514,0.772,0.165,1.671,0.477,2.534c0.164,0,0.366,0.018,0.569,0.018
	c0.57,0,1.157-0.037,1.745,0c0.698,0.055,1.248-0.164,1.744-0.643c0.11-0.11,0.295-0.165,0.441-0.258l2.038,1.836l-0.386,0.845
	c-2.038-0.882-4.131-0.753-6.242-0.955c0.055,0.919,0.129,1.708,0.147,2.516c0.037,1.046,0.239,2.148,0.037,3.158
	c-0.294,1.524-0.698,2.461-2.553,3.158C16.121,129.185,15.993,129.038,15.974,128.873z"/>
</svg>
