<?xml version="1.0" encoding="utf-8"?>
<!-- Generator: Adobe Illustrator 17.0.0, SVG Export Plug-In . SVG Version: 6.00 Build 0)  -->
<!DOCTYPE svg PUBLIC "-//W3C//DTD SVG 1.1//EN" "http://www.w3.org/Graphics/SVG/1.1/DTD/svg11.dtd">
<svg version="1.1" id="图层_1" xmlns="http://www.w3.org/2000/svg" xmlns:xlink="http://www.w3.org/1999/xlink" x="0px" y="0px"
	 width="94.333px" height="27.613px" viewBox="0 0 94.333 27.613" enable-background="new 0 0 94.333 27.613" xml:space="preserve">
<g>
	<path fill="#FFFFFF" d="M3.855,13.066L3.327,11.68c2.289,0.132,4.533,0,6.755-0.242c0.572-1.298,0.572-2.64,0.858-4.004
		c0.176-0.11,0.396-0.242,0.594-0.396c0.33,0.198,0.616,0.352,0.99,0.594l0.396,0.616c-0.858,0.968-1.496,2.024-2.222,3.168
		c0.396-0.066,0.682-0.132,0.924-0.11c0.682,0.044,1.276-0.132,1.76-0.616c0.132-0.132,0.352-0.176,0.506-0.242
		c0.77,0.704,0.77,0.946,0.066,1.716l-0.286-0.242l-2.398,0.154l-0.682,1.1l0.132,0.99h1.034l0.946-0.66
		c0.814,0.616,0.99,0.902,0.924,1.475c-0.902,0.353-2.002-0.242-2.97,0.506c1.056,0.616,2.09,0.99,2.707,1.937
		c0.044,0.858-0.088,1.254-0.66,1.782c-0.418,0-0.44-0.374-0.55-0.66c-0.176-0.484-0.33-0.99-0.506-1.496
		c-0.176-0.396-0.374-0.771-0.572-1.166H10.94l-0.308,1.012c0.088,0.265,0.242,0.572,0.264,0.902
		c0.044,0.814,0.198,1.672-0.044,2.398c-0.286,0.924-0.616,1.98-1.694,2.354c-0.572-0.286-0.176-0.748-0.308-1.145
		c-0.374-0.286-0.77-0.594-1.166-0.924l0.066-0.132h1.452c0.308-1.761,0.022-3.455-0.132-5.171l-3.96,0.55l-0.418-1.232h4.334
		v-2.398L3.855,13.066z M3.921,20.789c0.066-0.153,0.11-0.352,0.22-0.462c1.386-1.21,2.333-2.75,3.235-4.335
		c0,0,0.044,0,0.132-0.065l0.902,1.232c-1.123,1.649-2.794,2.618-4.313,3.74L3.921,20.789z M10.874,3.759v2.112
		c0.308-0.022,0.616-0.044,0.946-0.088c0.066,0.088,0.132,0.176,0.22,0.264l1.078-1.166c0.506,0.66,1.144,1.1,0.99,1.98
		c-1.012,0.066-1.915-0.088-2.838-0.242c-0.55-0.088-1.122-0.044-1.694,0c-1.034,0.088-2.09,0.154-3.103,0.44
		C5.945,7.213,5.417,7.345,4.911,7.477l-0.902-1.43h5.017c0.088-1.122-0.088-2.112-0.242-3.103l-0.55-0.44l1.54-0.484
		c0.022,0.044,0.044,0.066,0.044,0.11L9.333,2.394C9.092,2.9,9.642,2.724,9.751,2.944l0.528-0.748
		c0.462,0.374,0.968,0.66,1.232,1.276L10.874,3.759z M8.211,8.665l-0.77,0.374c0.814,0.154,1.364-0.264,1.958-0.66l-1.122,2.31
		c-0.11,0.044-0.308,0.154-0.572,0.308c-0.176-0.22-0.44-0.418-0.484-0.638c-0.11-0.616-0.132-1.276-0.198-1.914L6.891,7.631
		c0.088-0.022,0.154-0.066,0.22-0.11C7.463,7.873,7.815,8.225,8.211,8.665z M19.345,10.601l0.792,0.638
		c-0.462,0.968-0.286,1.958-0.242,2.948c0.066,1.607,0.176,3.235,0.132,4.841c-0.022,1.122-0.484,2.134-1.254,2.97
		c-0.088,0.11-0.22,0.177-0.462,0.33c-0.088-0.308-0.176-0.55-0.176-0.792c-0.022-1.298,0.044-2.574,0-3.872
		c-0.066-1.914-0.198-3.807-0.308-5.721l-0.066-1.43l-1.562,0.396c-0.022,0.396-0.044,0.748-0.044,1.078l-0.176,2.575
		c-0.11,1.475-0.704,2.75-1.518,3.938c-1.21,1.738-2.508,3.389-3.96,4.885c-0.11,0.11-0.22,0.176-0.418,0.176
		c0.044-0.109,0.088-0.242,0.176-0.33c0.924-1.232,1.892-2.442,2.794-3.674c0.792-1.079,1.122-2.354,1.386-3.631
		c0.33-1.519,0.418-3.037,0.22-4.577c-0.066-0.528,0.022-1.1,0-1.628c-0.044-1.342-0.132-2.685-0.176-4.027
		c-0.022-0.528-0.308-0.792-0.946-0.968l1.298-0.902c0.462,0.396,1.056,0.572,1.232,1.276c1.232-0.572,2.75-0.55,3.477-2.112
		c1.056-0.044,1.496,0.946,2.267,1.541l-0.55,0.594c-1.826,0.132-3.564,0.286-5.237,0.418v4.026h2.223
		c0.638,0,1.298-0.044,1.936-0.022c0.572,0.022,1.034-0.154,1.452-0.506c0.242-0.198,0.484-0.33,0.858-0.594
		c0.352,0.506,0.726,1.012,1.1,1.518l0.176-0.132l-0.594,0.77l-3.785-0.176L19.345,10.601z"/>
	<path fill="#FFFFFF" d="M28.231,21.449c0.044-2.09,0.132-4.181,0.132-6.271c0-1.937-0.088-3.873-0.154-5.809
		c-0.066-1.519-0.11-3.037-0.198-4.533c-0.022-0.506-0.088-0.99-0.154-1.606c0.814,0.572,1.541,1.078,2.245,1.541l1.738-0.088
		l0.924-1.408c0.396,0.264,0.792,0.572,1.254,0.902L34.392,5.1l-0.44,0.462v2.992l1.034-0.11c0.176,0.33-0.044,0.44-0.33,0.528
		L32.94,9.567l-1.848,0.638l-0.55,0.176l-0.814-0.616c-0.044,0.088-0.088,0.132-0.088,0.176l0.154,4.688
		c0.066,1.958,0.066,3.916,0.176,5.874c0.066,0.946-0.528,1.475-1.056,2.112C28.363,22.351,28.209,21.911,28.231,21.449z
		 M32.016,5.387l-2.376,0.22c0.066,0.484,0.132,0.902,0.22,1.386c0.748-0.176,1.496,0.132,2.156-0.308V5.387z M29.684,7.697v1.496
		c0.88,0,1.672-0.066,2.53-0.396l-0.176-1.1H29.684z M34.436,11.349c0.88,0.022,1.782,0.11,2.641,0.022
		c0.506-0.044,0.968-0.374,1.452-0.572c0.11-0.044,0.22-0.11,0.396-0.22l1.1,1.056c-0.176,0.198-0.308,0.374-0.462,0.572
		L38.727,11.9c-0.132,0.066-0.33,0.132-0.682,0.264l0.66,0.33l-0.308,1.078c0.066,1.628,0.11,3.367,0.22,5.105
		c0.022,0.616-0.154,1.166-0.418,1.673c-0.154,0.308-0.352,0.571-0.55,0.88l-0.528-0.264c-0.396-1.145-0.198-2.311-0.286-3.587
		l-5.237,1.672l-0.924-1.078l0.088-0.176l1.188-0.066c0.352-1.848-0.176-3.674,0.044-5.544h-1.364
		c-0.154-0.242-0.33-0.462-0.572-0.836H34.436z M33.512,13.902v1.475l2.575-0.154v0.682l-2.552,0.11v1.562l3.322-0.462l-0.22-5.105
		h-2.992c-0.066,0.484-0.132,0.88-0.242,1.43c0.968-0.11,1.782-0.198,2.619-0.308v0.77H33.512z M40.663,21.185
		c0.044-1.805,0.154-3.631,0.132-5.435c0-1.915-0.11-3.829-0.198-5.81C39.079,9.7,37.604,9.963,36.13,9.875L35.932,3.67
		C36.68,4,37.429,4.308,38.044,4.595l2.245-0.286c0.308-0.352,0.726-0.836,1.21-1.364c0.572,0.748,1.65,0.924,1.738,2.112
		l-0.902,0.99l0.154,4.137c0.066,1.43,0.11,2.86,0.154,4.291l0.153,4.356c0.044,1.276-0.396,2.376-1.188,3.366
		C40.883,22.021,40.663,21.758,40.663,21.185z M40.443,6.817l-0.088-1.738l-2.508,0.132c-0.022,0.528-0.044,1.034-0.088,1.606
		H40.443z M37.825,9.039h2.772c-0.044-0.55-0.11-0.99-0.154-1.475c-0.924,0.022-1.76-0.198-2.618,0.022V9.039z"/>
	<path fill="#FFFFFF" d="M48.581,11.592c0.044-1.188-0.528-2.178-0.99-3.323l2.354,0.99l-0.154,0.33
		c0.792-0.088,0.771,0.55,0.946,0.968c-0.242,0.638-1.101,1.32-1.958,1.54C48.712,11.9,48.581,11.745,48.581,11.592z M51.044,22.065
		l-1.518,0.309c-0.088-1.387-0.353-2.641-1.32-3.741h0.814c0.945-1.144,1.275-2.618,1.979-3.763
		c0.902-2.112,1.343-4.291,2.267-6.293l0.176,0.044c-0.109,0.33-0.176,0.66-0.308,0.968c-0.683,1.958-1.166,3.96-1.628,5.963
		c-0.286,1.342-0.33,2.706-0.286,4.07c0,0.484,0.176,0.968,0.286,1.496C51.353,21.428,51.199,21.779,51.044,22.065z M51.837,3.869
		L51.881,4c0.22-0.066,0.439-0.11,0.726-0.176c0.572,0.264,0.771,0.77,0.727,1.43c-0.242,0.44-0.418,0.968-1.013,1.1l-0.88-0.242
		C51.243,5.078,51.111,4,50.363,3.099c0.396-0.33,0.638,0.066,0.902,0.154c0.286,0.066,0.527,0.242,0.857,0.418L51.837,3.869z
		 M56.238,11.459c-0.616,0.088-1.232,0.154-1.87,0.132l-0.507,0.33l-0.813-1.474h5.545c0.286-1.145-0.133-2.289,0.418-3.389
		c-0.022-0.044-0.11-0.132-0.242-0.264l0.132-0.88l-4.005,0.616c0-0.044-0.021-0.088-0.044-0.154c2.156-0.616,4.247-1.32,6.271-2.42
		l-0.309-0.418l-0.132-0.462c0.616-0.176,1.145-0.154,1.672,0.154c0.484,0.33,0.99,0.616,1.452,0.968
		c0.463,0.374,0.528,0.748,0.221,1.298l-4.247,0.33l0.704,0.968l0.242-0.352l0.594,0.462c0.198,0.462-0.088,0.704-0.418,0.946
		c-0.132,0.792-0.241,1.584-0.374,2.486h2.729l2.047-1.1l2.222,1.694c-0.109,0.176-0.242,0.374-0.352,0.594
		c-0.66,0.396-1.32,0-1.959-0.088c-1.122-0.176-2.244-0.352-3.366-0.33c-0.176,0-0.33-0.044-0.506-0.044
		c-0.22,0-0.462,0.044-0.682,0.198l-0.551-0.242c0,0.022-0.021,0.044-0.044,0.066l0.265,0.286l-0.396,3.477h2.398l1.145-0.727
		l1.43,0.925c-0.22,0.483-0.44,0.945-0.704,1.562c0,1.034,0.066,2.223-0.021,3.411c-0.045,0.55-0.396,1.1-0.66,1.628
		c-0.133,0.308-0.44,0.352-0.748,0.176l-0.837-0.506c0.022-0.308,0.066-0.66,0.11-0.99h-5.303c0,0.99-0.176,1.805-1.034,2.288
		l-0.616-0.286l0.264-2.09c0.022-0.11-0.044-0.198-0.065-0.308c-0.154-0.639-0.198-1.276-0.022-1.805
		c-0.286-1.057-0.132-2.046-0.286-2.992c-0.241-0.198-0.462-0.396-0.748-0.66c1.034-0.418,1.893-0.396,2.751,0.198v0.374
		l1.254-0.066c0.176-1.232,0.353-2.509,0.528-3.917C57.866,11.218,57.051,11.349,56.238,11.459z M56.832,19.425
		c1.738-0.044,3.455,0.177,5.215-0.109c0.088-1.211,0.176-2.377,0.286-3.543c-1.122-0.396-2.267,0.309-3.301-0.308
		c-0.065,0.065-0.109,0.197-0.198,0.22l-2.002,0.176V19.425z"/>
	<path fill="#FFFFFF" d="M80.173,19.557c-1.693-0.089-3.234,0.285-4.95,0.659c-1.078-0.197-2.156,0.683-3.41,0.66
		c-0.265-0.374-0.507-0.77-0.792-1.21l4.378-0.374l0.11-1.804c-1.166-0.374-2.244,0.088-3.389,0.132l-0.594-0.858h2.53v-0.044
		c0.462-0.044,0.924-0.088,1.43-0.154v-2.09l-1.386,0.065c-0.176,0.396-0.33,0.727-0.462,1.078l-0.484,0.265l-0.462-0.265
		c0.088-2.112,0.154-4.181-0.22-6.359l-0.44-0.242l0.726-0.572l0.969,0.484c0.55-0.044,1.122-0.11,1.738-0.176l0.065-1.452
		c-1.562-0.066-3.058,0.308-4.599,0.374l-0.748-1.1c1.826-0.066,3.564-0.132,5.391-0.176l-0.109-1.848
		c-1.254,0.198-2.354,0.572-3.521,0.484c1.804-0.814,3.763-1.188,5.522-2.2l-0.286-0.572h1.431c0.77,0.55,1.034,1.034,0.99,1.958
		c-0.418,0-0.858-0.022-1.299,0c-0.396,0.044-0.813,0.154-1.21,0.242c-0.044,0.066-0.065,0.132-0.11,0.176
		c0.221,0.132,0.44,0.264,0.66,0.418c-0.197,0.396-0.352,0.748-0.571,1.145H78.7c0.374-0.286,0.792-0.638,1.232-0.99
		c0.594,0.374,1.122,0.748,1.298,1.496c-0.198,0.308-0.462,0.44-0.836,0.44c-0.727,0-1.475-0.022-2.2-0.022
		c-0.33,0-0.66,0.044-1.013,0.044c-0.065,0.506-0.264,1.012-0.088,1.541l1.101-0.066l0.99-0.66c0.726,0.308,1.231,0.968,1.21,1.606
		l-0.265,0.264c0,1.43,0.022,2.75-0.021,4.048c-0.022,0.506-0.22,0.991-0.616,1.342c-0.154,0.133-0.264,0.33-0.462,0.572
		c0.418,0.309,0.814,0.572,1.188,0.858c-0.33,0.572-0.727,0.55-1.057,0.572c-0.55,0.044-1.1,0.021-1.628,0.021
		c-0.221-0.021-0.418-0.065-0.639-0.109c-0.021,0.638-0.065,1.298-0.109,1.979l1.605-0.176l0.99-0.902l1.145,1.057
		c0.528-0.528,0.727-1.188,0.902-1.826c0.616-2.112,1.078-4.269,1.188-6.491c0.022-0.418,0.066-0.836,0.11-1.342
		c-0.594,0.11-1.122,0.22-1.672,0.352l-0.551-1.408l2.112-0.088c0.44-1.541,0.44-3.125,0.374-4.687L82.154,3.12
		c0.418-0.264,0.771-0.484,1.122-0.682c0.748,0.044,2.047,0.704,2.377,1.188c-0.044,0.088-0.044,0.198-0.132,0.264
		c-0.66,0.55-0.704,1.364-0.793,2.112c-0.088,0.638-0.132,1.298-0.197,2.046c0.66-0.066,1.231-0.088,1.914-0.154
		c0.22-0.264,0.484-0.616,0.792-1.034c0.638,0.308,1.078,0.924,1.694,1.32c-0.858,1.21-0.528,2.574-0.66,3.851
		c-0.198,1.738-0.22,3.499-0.462,5.215c-0.11,0.88-0.506,1.738-0.858,2.552c-0.154,0.353-0.484,0.639-0.792,0.858
		c-0.484,0.374-0.902,0.858-1.694,0.88c-0.088-0.374-0.154-0.77-0.264-1.144c-0.132-0.374-0.309-0.704-0.528-1.211l1.298,0.11
		c0.133-0.198,0.353-0.418,0.418-0.66c0.286-1.21,0.595-2.42,0.771-3.652c0.286-1.937,0.484-3.895,0.308-5.853
		c0-0.154-0.021-0.286-0.044-0.528l-1.979,0.462c-0.089,0.594-0.154,1.232-0.265,1.826c-0.308,1.672-0.572,3.366-0.946,5.017
		c-0.242,1.057-0.682,2.047-1.32,2.927c-0.308,0.396-0.55,0.858-0.88,1.232c-0.55,0.55-1.166,1.078-1.782,1.584
		c-0.528,0.44-1.1,0.858-1.65,1.254c-0.22,0.154-0.462,0.265-0.682,0.396c-0.066-0.044-0.11-0.11-0.154-0.176
		C77.929,22.021,79.404,21.185,80.173,19.557z M75.531,9.677l-1.562,0.198v1.584c0.571-0.044,1.034-0.066,1.562-0.088V9.677z
		 M75.465,12.032l-1.475,0.22v1.54l1.562-0.132L75.465,12.032z M78.414,13.418l0.066-1.584l-1.343,0.132
		c-0.065,0.55-0.352,1.034-0.021,1.562L78.414,13.418z M78.238,14.298l-1.232,0.198v1.849c0.88,0.088,1.276-0.088,1.716-0.638
		C78.568,15.223,78.414,14.805,78.238,14.298z M77.049,9.567v1.606l1.431-0.11c-0.022-0.572-0.066-1.012-0.089-1.496H77.049z"/>
</g>
</svg>
