<?xml version="1.0" encoding="utf-8"?>
<!-- Generator: Adobe Illustrator 17.0.0, SVG Export Plug-In . SVG Version: 6.00 Build 0)  -->
<!DOCTYPE svg PUBLIC "-//W3C//DTD SVG 1.1//EN" "http://www.w3.org/Graphics/SVG/1.1/DTD/svg11.dtd">
<svg version="1.1" id="图层_1" xmlns="http://www.w3.org/2000/svg" xmlns:xlink="http://www.w3.org/1999/xlink" x="0px" y="0px"
	 width="29px" height="29px" viewBox="0 0 29 29" enable-background="new 0 0 29 29" xml:space="preserve">
<g>
	<path fill-rule="evenodd" clip-rule="evenodd" fill="#333137" d="M10.121,16.989c-0.728,0.076-1.249,0.711-1.249,1.318
		c0,0.608,0.586,1.028,1.315,0.943c0.725-0.083,1.314-0.644,1.314-1.25C11.5,17.392,10.957,16.91,10.121,16.989z"/>
	<path fill-rule="evenodd" clip-rule="evenodd" fill="#333137" d="M11.969,16.488c-0.25,0.181-0.301,0.527-0.165,0.742
		c0.13,0.22,0.434,0.245,0.68,0.062c0.241-0.19,0.335-0.521,0.204-0.742C12.558,16.334,12.258,16.272,11.969,16.488z"/>
	<path fill-rule="evenodd" clip-rule="evenodd" fill="#333137" d="M14.502,0.006C6.5,0.006,0,6.497,0,14.504
		c0,8.004,6.5,14.49,14.502,14.49c8.008,0,14.498-6.486,14.498-14.49C29,6.497,22.509,0.006,14.502,0.006z M22.427,18.139
		c-1.598,3.395-6.868,5.047-10.772,4.741c-3.712-0.292-8.484-1.525-8.977-6.016c0,0-0.26-2.034,1.711-4.666
		c0,0,2.836-3.962,6.141-5.092c3.306-1.126,3.691,0.779,3.691,1.904c-0.175,0.955-0.504,1.516,0.737,1.13c0,0,3.25-1.507,4.587-0.17
		c1.079,1.08,0.178,2.564,0.178,2.564s-0.448,0.496,0.473,0.675C21.12,13.394,24.025,14.739,22.427,18.139z M19.222,8.76
		c-0.354,0-0.637-0.286-0.637-0.637c0-0.357,0.283-0.643,0.637-0.643c0,0,3.984-0.737,3.508,3.545c0,0.026-0.003,0.045-0.008,0.068
		c-0.046,0.303-0.312,0.535-0.626,0.535c-0.355,0-0.643-0.284-0.643-0.638C21.452,10.99,22.084,8.129,19.222,8.76z M25.952,11.746
		c-0.105,1.542-0.465,1.002-0.893,1.002c-0.512,0-0.926-0.258-0.926-0.771c0-0.445,0.184-0.818,0.184-0.818
		c0.054-0.187,0.488-1.31-0.286-3.047c-1.416-2.38-4.27-2.395-4.607-2.259c-0.34,0.133-0.842,0.211-0.842,0.211
		c-0.516,0-0.929-0.412-0.929-0.922c0-0.428,0.286-0.782,0.677-0.893c0,0,0.009-0.001,0.023-0.004
		c0.028-0.006,0.057-0.011,0.088-0.014c0.396-0.077,1.813-0.619,3.19-0.297c2.465,0.575,5.849,3.185,4.326,7.811H25.952z"/>
	<path fill-rule="evenodd" clip-rule="evenodd" fill="#333137" d="M11.943,12.419c-3.877,0.178-7.01,2.254-7.01,4.844
		c0,2.587,3.133,4.531,7.01,4.35c3.879-0.176,7.018-2.605,7.018-5.191C18.962,13.838,15.822,12.24,11.943,12.419z M14.584,18.933
		c-1.187,1.533-3.536,2.281-5.817,1.046c-1.085-0.589-1.046-1.745-1.046-1.745s-0.45-3.653,3.448-4.109
		C15.074,13.671,15.771,17.4,14.584,18.933z"/>
</g>
</svg>
