<?xml version="1.0" encoding="utf-8"?>
<!-- Generator: Adobe Illustrator 17.0.0, SVG Export Plug-In . SVG Version: 6.00 Build 0)  -->
<!DOCTYPE svg PUBLIC "-//W3C//DTD SVG 1.1//EN" "http://www.w3.org/Graphics/SVG/1.1/DTD/svg11.dtd">
<svg version="1.1" id="图层_1" xmlns="http://www.w3.org/2000/svg" xmlns:xlink="http://www.w3.org/1999/xlink" x="0px" y="0px"
	 width="29px" height="29px" viewBox="0 0 29 29" enable-background="new 0 0 29 29" xml:space="preserve">
<g>
	<path fill-rule="evenodd" clip-rule="evenodd" fill="#333137" d="M16.879,14.5c-0.413,0-0.828,0.415-0.828,0.827
		c0,0.419,0.415,0.828,0.828,0.828c0.626,0,1.035-0.41,1.035-0.828C17.914,14.915,17.505,14.5,16.879,14.5z"/>
	<path fill-rule="evenodd" clip-rule="evenodd" fill="#333137" d="M21.43,14.5c-0.41,0-0.822,0.415-0.822,0.827
		c0,0.419,0.413,0.828,0.822,0.828c0.62,0,1.035-0.41,1.035-0.828C22.466,14.915,22.051,14.5,21.43,14.5z"/>
	<path fill-rule="evenodd" clip-rule="evenodd" fill="#333137" d="M8.397,8.499c-0.619,0-1.246,0.409-1.246,1.032
		c0,0.62,0.626,1.035,1.246,1.035c0.62,0,1.032-0.415,1.032-1.035C9.429,8.908,9.017,8.499,8.397,8.499z"/>
	<path fill-rule="evenodd" clip-rule="evenodd" fill="#333137" d="M14.189,10.566c0.622,0,1.035-0.415,1.035-1.035
		c0-0.623-0.413-1.032-1.035-1.032c-0.62,0-1.243,0.409-1.243,1.032C12.945,10.151,13.569,10.566,14.189,10.566z"/>
	<path fill-rule="evenodd" clip-rule="evenodd" fill="#333137" d="M14.501-0.001C6.496-0.001,0,6.492,0,14.5
		s6.496,14.501,14.501,14.501C22.507,29.001,29,22.508,29,14.5S22.507-0.001,14.501-0.001z M11.086,19.057
		c-1.033,0-1.863-0.211-2.898-0.415l-2.893,1.451l0.827-2.49c-2.07-1.447-3.311-3.314-3.311-5.585c0-3.937,3.726-7.037,8.275-7.037
		c4.068,0,7.632,2.476,8.348,5.81c-0.263-0.03-0.529-0.048-0.797-0.048c-3.931,0-7.034,2.933-7.034,6.548
		c0,0.601,0.093,1.181,0.255,1.734C11.602,19.044,11.345,19.057,11.086,19.057z M23.29,21.955l0.623,2.069l-2.269-1.243
		c-0.828,0.207-1.659,0.415-2.483,0.415c-3.937,0-7.037-2.691-7.037-6.004c0-3.308,3.1-6.004,7.037-6.004
		c3.716,0,7.028,2.696,7.028,6.004C26.189,19.057,24.952,20.71,23.29,21.955z"/>
</g>
</svg>
