<svg version="1.1" id="图层_1" xmlns="http://www.w3.org/2000/svg" x="0" y="0" viewBox="0 0 827 140" xml:space="preserve"><style>.st1{fill:#4d4d4d}.st2{fill:#fc8838}.st3{fill:#34abfd}.st4{fill:#8385f3}.st5{fill:#00c362}</style><path fill="none" d="M-466.1-417.5H-113v45h-353.1z"/><text transform="translate(-466.056 -390.275)" font-family="HYQiHei-FZS-GBpc-EUC-H" font-size="32" fill="#333">标准LOGO</text><g id="XMLID_1_"><path id="XMLID_360_" class="st1" d="M338 52.4h58.4v5.2H338z"/><g id="XMLID_345_"><path id="XMLID_359_" class="st1" d="M368.2 35.6l3.6-2.1.1-.1-.1-.1c-.4-1-1.5-3.3-2.7-5.7-1.1-2.3-2.2-4.6-2.7-5.8l-.1-.2-5.2 3 .1.1c1.9 3.5 3.5 6.7 4.9 9.8.2.4.3.8.4 1h-34.3v5.6h70.2v-5.6h-34.2z"/><path id="XMLID_358_" class="st1" d="M256.7 31.3h-5.2v18.4h-9.9V23.6h-5.2v26.1h-10.3V31.3h-5.2v23.6h35.8z"/><path id="XMLID_357_" class="st1" d="M198.2 53.8c8.1-8.1 15.1-17.9 20.2-28.4l-4.9-2.8c-5 10.3-11.4 19.1-18.5 25.8l3.2 5.4z"/><path id="XMLID_356_" class="st1" d="M338 68.7h58.4v5.6H338z"/><path id="XMLID_353_" class="st1" d="M339.5 117h55.4V85.4h-55.4V117zm49.7-5.2h-44.1V90.7h44.1v21.1z"/><path id="XMLID_352_" class="st1" d="M325.4 22.1c-5.2 18.1-12.7 34.6-22.2 48.4l3.1 5.3c3.3-4.9 6.7-10.6 10-16.5v61h5.6V47.7c3.3-7.1 6.2-14.8 8.6-22.6l-5.1-3z"/><path id="XMLID_351_" class="st1" d="M222.5 65.2h31.8v5.2h-31.8z"/><path id="XMLID_350_" class="st1" d="M261.3 98.1l-2.5-4.4-.1-.2-8 6.9V80.7h-26.9v7.9c.8 10.9-2 18.6-8.1 23.1l-.1.1 2.9 5 .1.2.2-.1c7.6-6.3 11.2-15.1 10.7-26.2V86h16v11.7c-.2 4.1-.4 5.3-1.8 7.3l-.1.1 3.2 5.6.1-.1c2.8-2.4 7.6-6.6 14.4-12.5z"/><path id="XMLID_349_" class="st1" d="M217.8 52.1l-5.1-2.9-.1.2c-4.8 12.1-11.2 22.7-19 31.6l-.1.1 2.9 5 .1.2.2-.2c3.1-3.6 6.1-7.4 9-11.3v45.4h5.2v-54c2.4-4.2 4.7-8.9 6.8-14l.1-.1z"/><path id="XMLID_346_" class="st1" d="M271.9 41.5c2-6.1 4.3-13.1 5.1-19.2h-5.5c-3.4 15.9-8.6 29.7-15.3 40.6l3.3 5.7 2.4-4.8c.9-1.6 1.7-2.9 2.2-4 1.6 14.1 4.5 25.4 8.5 33.7-3.8 6.6-9.8 13.5-17.6 20.5l-.1.1 3 5.2.1.2.2-.1c8.3-7.8 14-14.5 17-20.2 3.5 6.1 9.3 13.6 16.1 20.5l.2.2 3.1-5.4.1-.1-.1-.1c-7.3-7-13.1-14.2-16.3-20.3 5.9-10.8 9.6-26.7 11-47.2h5.7v-5.2h-23.1v-.1zm3.9 45.9c-3.4-8.9-6-21-7.6-35.9.5-1.6 1.2-3.2 2-4.8h14c-1.1 17.1-4 30.8-8.4 40.7"/></g></g><path class="st1" d="M416.4 29.8h89.3v5.3h-21.2v32.2h25.3V73h-25.3v46h-5.7V73h-34.7c1.4 21.7-7.5 37.3-26.5 46.8-.3-.8-3.8-5-4.1-5.3 10.1-5.2 16.6-10.5 19.6-15.9 3.5-5.7 5.3-14.3 5.3-25.7h-26.5v-5.7h26.5V35.1h-22v-5.3zm28.1 5.3v32.2h34.2V35.1h-34.2zM519.1 40.8H566v5.3h-29.8v19.1h23.6c0 9-.5 21.5-1.6 37.5.3 9.2-4.2 13.7-13.5 13.4H537c-.3-1.6-.7-3.5-1.2-5.7h2.4c2.4.3 4.2.4 5.3.4 6.2.3 9.4-2.3 9.4-7.7.8-11.1 1.2-22.1 1.2-33h-17.9c-.8 23.4-5.8 39.8-14.3 49.3l-1.6-1.6c-1.4-1.1-2.3-1.9-2.9-2.4 8.4-9.2 12.4-27.5 13-41.5.3-6.5 0-23.4 0-27.8H519v-5.3zm19.2-17.5l5.3-1.6c.5 1.6 1.6 4.8 3.3 9.4 1.4 3.8 2.2 6.3 2.4 7.3L544 40c-1.4-4.3-3.3-9.9-5.7-16.7zm75 95.7c-10.3-6.5-18.3-12.9-24.1-19.1-6.3 6.8-15 13.6-26.1 20.4-1.6-2.4-2.9-4.2-3.7-5.3 12.2-7.1 21.1-13.7 26.5-20-7.1-9.8-11.3-22.7-12.6-38.7-1.1 1.9-7.7 12.6-7.7 12.6l-4.1-4.5c8.7-11.7 15.2-25.9 19.6-42.8l4.7 1.3c-1.9 6.5-3.2 12.7-5.9 18.7h36.7v5.3H608c-1.9 20.6-6.9 36.8-15.1 48.5 5.7 6.8 13.7 12.8 24.1 17.9-.3.5-.8 1.5-1.6 2.9-1.1 1.3-1.8 2.3-2.1 2.8zm-24-28.5c7.1-9.5 11.5-24 13.5-43.6h-24.9s-.5 1.4-.8 1.6c1.8 18.3 5.9 32.3 12.2 42zM629.7 48.6v-5.3h31.4V49c-3.3 6.8-6.9 12.8-11 17.9v52.5h-5.7v-46c-4.1 4.3-9 8.8-14.7 13.4-.3-.8-2.4-5-2.4-5.3 12.2-9 21.6-20 28.1-33h-25.7zm23.6 25.2l4.1-3.3c3.8 3.5 7.9 7.7 12.2 12.6l-4.1 4.1c-3.2-4-7.3-8.5-12.2-13.4zm8.6 36.7h28.5V58.8h-24.1v-5.3h24.1V22.9h5.7v30.6h26.1v5.3h-26.1v51.7h29.4v5.3h-63.6v-5.3zM740.2 29.4h85.2v5.3h-79.5V108H827v5.3h-86.8V29.4zm17.1 18l3.7-3.7c8.7 7.3 17.5 15.3 26.5 24 7.6-8.4 14.7-17.1 21.2-26.1l4.9 3.3c-6.5 9.2-13.9 18.1-22 26.5C804 82.5 813 90.8 818.4 96.2l-4.9 4.5c-8.4-8.7-17.1-17.1-26.1-25.3-9.2 9.5-19.2 18.3-29.8 26.5-.3-.5-3.9-4.3-4.5-4.9 9-5.7 19.2-14.1 30.6-25.3-2.7-2.4-6.7-6.1-11.8-11-6.7-6.2-11.6-10.6-14.6-13.3zM639.7 21.8l5.2-2c.6 1.7 2 6.7 3.9 11.4 1.6 3.9 2.6 6.5 2.9 7.6l-5.2 2c-1.5-4.5-3.9-12-6.8-19z"/><g><path class="st2" d="M29.6 136.4H6.1c-2.5 0-4.6-2.1-4.6-4.6v-23.5c0-2.5 2.1-4.6 4.6-4.6h23.5c2.5 0 4.6 2.1 4.6 4.6v23.5c0 2.5-2 4.6-4.6 4.6z"/><path class="st3" d="M6.1 3.6h23.5c2.5 0 4.6 2.1 4.6 4.6v23.5c0 2.5-2.1 4.6-4.6 4.6H6.1c-2.5 0-4.6-2.1-4.6-4.6V8.2c0-2.5 2-4.6 4.6-4.6zM70.6 102.4L85 116.8c1.8 1.8 1.8 4.7 0 6.5l-14.4 14.4c-1.8 1.8-4.7 1.8-6.5 0l-14.4-14.4c-1.8-1.8-1.8-4.7 0-6.5l14.4-14.4c1.8-1.8 4.7-1.8 6.5 0z"/><path class="st4" d="M123.1 52.6L137.5 67c1.8 1.8 1.8 4.7 0 6.5l-14.4 14.4c-1.8 1.8-4.7 1.8-6.5 0l-14.4-14.4c-1.8-1.8-1.8-4.7 0-6.5l14.4-14.4c1.8-1.8 4.7-1.8 6.5 0z"/><path class="st2" d="M70.6 2.3L85 16.7c1.8 1.8 1.8 4.7 0 6.5L70.6 37.7c-1.8 1.8-4.7 1.8-6.5 0L49.7 23.3c-1.8-1.8-1.8-4.7 0-6.5L64.1 2.3c1.8-1.8 4.7-1.8 6.5 0z"/><path class="st5" d="M105.8 3.6H134c1.3 0 2.3 1 2.3 2.3V34c0 1.3-1 2.3-2.3 2.3h-28.2c-1.3 0-2.3-1-2.3-2.3V5.9c0-1.2 1-2.3 2.3-2.3z"/><ellipse class="st5" cx="67.3" cy="70.2" rx="21.9" ry="17.8"/><path class="st5" d="M118.3 105.2L102.2 133c-.7 1.2.2 2.6 1.5 2.6h32.2c1.3 0 2.2-1.5 1.5-2.6l-16.1-27.8c-.6-1.1-2.3-1.1-3 0z"/><path class="st4" d="M16.3 55.4L.2 83.3c-.7 1.2.2 2.6 1.5 2.6h32.2c1.3 0 2.2-1.5 1.5-2.6l-16-27.9c-.7-1.1-2.4-1.1-3.1 0z"/></g></svg>