<?xml version="1.0" encoding="UTF-8"?><!DOCTYPE svg PUBLIC "-//W3C//DTD SVG 1.1//EN" "http://www.w3.org/Graphics/SVG/1.1/DTD/svg11.dtd"><svg width="305" height="297" viewBox="0 0 305 297" xmlns="http://www.w3.org/2000/svg" xmlns:xlink="http://www.w3.org/1999/xlink"><svg width="13" height="9" viewBox="-1 -1 13 9" id="arrow-down-active-sc" x="98" y="150" xmlns="http://www.w3.org/2000/svg"><path fill="#00A4FF" fill-rule="nonzero" d="M5.504 4.656L9.892.008 11 1.183 5.509 7l-.005-.005L0 1.174 1.108 0z"/></svg><svg width="13" height="9" viewBox="-1 -1 13 9" id="arrow-down-s1" x="287" y="265" xmlns="http://www.w3.org/2000/svg"><path fill="#999" fill-rule="nonzero" d="M5.504 4.656L9.892.008 11 1.183 5.509 7l-.005-.005L0 1.174 1.108 0z"/></svg><svg width="13" height="9" viewBox="-1 -1 13 9" id="arrow-down-s2" x="124" y="150" xmlns="http://www.w3.org/2000/svg"><path d="M5.5 4.2L1.376 0 0 1.4 5.5 7l1.376-1.4L11 1.4 9.624 0z" fill-rule="nonzero" fill="#00a4ff"/></svg><svg width="13" height="9" viewBox="-1 -1 13 9" id="arrow-down-s6" x="137" y="150" xmlns="http://www.w3.org/2000/svg"><path d="M5.5 4.2L1.376 0 0 1.4 5.5 7l1.376-1.4L11 1.4 9.624 0z" fill="#999" fill-rule="nonzero"/></svg><svg width="13" height="9" viewBox="-1 -1 13 9" id="arrow-down-s6" x="150" y="150" xmlns="http://www.w3.org/2000/svg"><path d="M5.5 4.2L1.376 0 0 1.4 5.5 7l1.376-1.4L11 1.4 9.624 0z" fill="#999" fill-rule="nonzero"/></svg><svg width="13" height="9" viewBox="-1 -1 13 9" id="arrow-up-s1" x="72" y="150" xmlns="http://www.w3.org/2000/svg"><path d="M5.5 2.8L1.376 7 0 5.6 5.5 0l1.376 1.4L11 5.6 9.624 7z" fill="#00a4ff" fill-rule="nonzero"/></svg><svg width="13" height="9" viewBox="-1 -1 13 9" id="arrow-up-sb" x="85" y="150" xmlns="http://www.w3.org/2000/svg"><path fill="#00A4FF" fill-rule="nonzero" d="M5.504 2.344l4.388 4.648L11 5.817 5.509 0l-.005.005L0 5.826 1.108 7z"/></svg><svg width="18" height="18" viewBox="-1 -1 18 18" id="calendarb" x="179" y="54" xmlns="http://www.w3.org/2000/svg"><g fill="#666" fill-rule="evenodd"><path fill-rule="nonzero" d="M1 2h14v13H1V2zm1 1v11h12V3H2z"/><path d="M4 1h1v3H4V1zm7 0h1v3h-1V1zM1 5h14v1H1V5zm3 3h8v1H4V8zm0 3h8v1H4v-1z"/></g></svg><svg width="18" height="18" viewBox="-1 -1 18 18" id="calendard" x="179" y="72" xmlns="http://www.w3.org/2000/svg"><g fill="#888"><path d="M12 3V2h-2v1H6V2H4v1H2v11h12V3h-2zm0 9H4V5h8v7z"/><path d="M5 6h2v2H5zM5 9h2v2H5zM9 6h2v2H9zM9 9h2v2H9z"/></g></svg><svg width="94" height="20" viewBox="-1 -1 94 20" id="college-logo-pc-whitef" y="16" xmlns="http://www.w3.org/2000/svg"><g fill="#000" fill-rule="evenodd"><path d="M68.284 12.6a11.848 11.848 0 0 0 4.76 3.552v1.764a.085.085 0 0 1-.113.079 13.627 13.627 0 0 1-6.033-4.297 13.478 13.478 0 0 1-2.069-3.632 13.279 13.279 0 0 1-1.882 3.407 13.428 13.428 0 0 1-6.211 4.522.085.085 0 0 1-.113-.079V16.15a11.667 11.667 0 0 0 4.927-3.762c1.232-1.616 1.994-3.523 2.273-5.518h-7.2V5.254h7.32l.002-.108V.256h1.771V5.253h7.328V6.87h-7.217a11.762 11.762 0 0 0 2.457 5.73zm16.895-.989H92v1.616h-7.08v4.647h-4.833l-.515-1.655a.083.083 0 0 1 .08-.107h3.497v-2.885h-7.936V11.61h7.863v-.566l3.21-2.079h-8.004V7.351h10.594v1.866l-3.697 2.394zm-7.792-6.113v2.48h-1.771V3.884h10.4L88.48.321h1.991c.068 0 .107.075.07.13l-2.376 3.432h3.396v4.095h-1.771v-2.48H77.387zm.742-2.647L76.411.452a.083.083 0 0 1 .068-.131h2.013l1.718 2.398c.04.055 0 .132-.068.132h-2.013zm4.761.294l-1.533-2.7a.083.083 0 0 1 .073-.124h1.891l1.533 2.7a.083.083 0 0 1-.073.124h-1.89zM2.157 5.704h2.067V2.217H2.157v3.487zm0 4.836h2.067V7.026H2.157v3.514zm11.317 3.335H5.697V.748H.682v10.41c0 2.67-.218 4.697-.664 6.493-.047.167.004.211.091.211h1.48c.494-2.467.559-4.514.567-6h2.068v4.566H2.756c-.072 0-.127.047-.09.148l.405 1.321h2.626v-2.553h7.777v-1.469z"/><path d="M9.27 8.229c.376-.43.739-.933 1.077-1.527h2.628c.353.578.734 1.083 1.127 1.527H9.27zm5.511-1.527h1.982V5.38h-5.774c.174-.423.331-.875.474-1.366H16.4V2.692h-1.447l.542-1.836c.028-.098-.023-.136-.087-.136h-1.256l-.583 1.972h-1.776c.166-.764.31-1.61.441-2.56.016-.11-.044-.132-.117-.132h-1.43a29.68 29.68 0 0 1-.496 2.692h-.87L8.738.72H7.482c-.063 0-.115.038-.086.136l.541 1.836H6.53v1.322h3.29c-.134.417-.33.909-.541 1.366H6.167v1.322h2.337c-.943 1.33-1.95 1.943-2.351 2.188v1.512c0 .076.06.157.3.021.437-.246.903-.525 1.375-.873h5.497l-.046 1.98h-4.34l.066-1.184a.087.087 0 0 0-.09-.089H7.527l-.14 2.505c0 .051.038.09.09.09h7.488v3.574H11.59c-.071 0-.127.046-.089.148l.405 1.32h4.683V11.53h-1.834l.06-2.57a10.692 10.692 0 0 0 2.014 1.463c.24.136.3.055.3-.021V8.89a7.594 7.594 0 0 1-2.348-2.188zM28.941 7.534h3.882V2.18h-3.882v5.354zM34.447.711h-10.2v1.47h3.07v5.353H23.8v1.469h3.519v8.98h1.623v-8.98h3.882v8.79h3.066v-1.468h-1.442V.71z"/><path d="M25.276 12.854l-2.737 2.064V5.371h-3.793v1.616h2.18v9.147l-.871.657.89 1.171 4.478-3.375v-1.664c0-.08-.088-.113-.147-.069M21.14 3.925h1.775c.078 0 .11-.085.076-.138l-2.238-3.4h-1.774c-.068 0-.116.076-.08.133l2.242 3.405M39.777 2.719H52.59V1.103H39.777zM37.973 8.824h4.556c-.941 2.459-3.303 8.628-3.319 8.673-.026.072.021.125.084.125h14.163c.067 0 .106-.066.082-.128l-2.112-5.525h-1.763a.09.09 0 0 0-.085.123l1.495 3.914h-9.392l2.742-7.182h9.97V7.209H37.973v1.615z"/></g></svg><svg width="94" height="20" viewBox="-1 -1 94 20" id="college-logo-pcf" y="36" xmlns="http://www.w3.org/2000/svg"><g fill="#FFF" fill-rule="evenodd"><path d="M68.284 12.6a11.848 11.848 0 0 0 4.76 3.552v1.764a.085.085 0 0 1-.113.079 13.627 13.627 0 0 1-6.033-4.297 13.478 13.478 0 0 1-2.069-3.632 13.279 13.279 0 0 1-1.882 3.407 13.428 13.428 0 0 1-6.211 4.522.085.085 0 0 1-.113-.079V16.15a11.667 11.667 0 0 0 4.927-3.762c1.232-1.616 1.994-3.523 2.273-5.518h-7.2V5.254h7.32l.002-.108V.256h1.771V5.253h7.328V6.87h-7.217a11.762 11.762 0 0 0 2.457 5.73zm16.895-.989H92v1.616h-7.08v4.647h-4.833l-.515-1.655a.083.083 0 0 1 .08-.107h3.497v-2.885h-7.936V11.61h7.863v-.566l3.21-2.079h-8.004V7.351h10.594v1.866l-3.697 2.394zm-7.792-6.113v2.48h-1.771V3.884h10.4L88.48.321h1.991c.068 0 .107.075.07.13l-2.376 3.432h3.396v4.095h-1.771v-2.48H77.387zm.742-2.647L76.411.452a.083.083 0 0 1 .068-.131h2.013l1.718 2.398c.04.055 0 .132-.068.132h-2.013zm4.761.294l-1.533-2.7a.083.083 0 0 1 .073-.124h1.891l1.533 2.7a.083.083 0 0 1-.073.124h-1.89zM2.157 5.704h2.067V2.217H2.157v3.487zm0 4.836h2.067V7.026H2.157v3.514zm11.317 3.335H5.697V.748H.682v10.41c0 2.67-.218 4.697-.664 6.493-.047.167.004.211.091.211h1.48c.494-2.467.559-4.514.567-6h2.068v4.566H2.756c-.072 0-.127.047-.09.148l.405 1.321h2.626v-2.553h7.777v-1.469z"/><path d="M9.27 8.229c.376-.43.739-.933 1.077-1.527h2.628c.353.578.734 1.083 1.127 1.527H9.27zm5.511-1.527h1.982V5.38h-5.774c.174-.423.331-.875.474-1.366H16.4V2.692h-1.447l.542-1.836c.028-.098-.023-.136-.087-.136h-1.256l-.583 1.972h-1.776c.166-.764.31-1.61.441-2.56.016-.11-.044-.132-.117-.132h-1.43a29.68 29.68 0 0 1-.496 2.692h-.87L8.738.72H7.482c-.063 0-.115.038-.086.136l.541 1.836H6.53v1.322h3.29c-.134.417-.33.909-.541 1.366H6.167v1.322h2.337c-.943 1.33-1.95 1.943-2.351 2.188v1.512c0 .076.06.157.3.021.437-.246.903-.525 1.375-.873h5.497l-.046 1.98h-4.34l.066-1.184a.087.087 0 0 0-.09-.089H7.527l-.14 2.505c0 .051.038.09.09.09h7.488v3.574H11.59c-.071 0-.127.046-.089.148l.405 1.32h4.683V11.53h-1.834l.06-2.57a10.692 10.692 0 0 0 2.014 1.463c.24.136.3.055.3-.021V8.89a7.594 7.594 0 0 1-2.348-2.188zM28.941 7.534h3.882V2.18h-3.882v5.354zM34.447.711h-10.2v1.47h3.07v5.353H23.8v1.469h3.519v8.98h1.623v-8.98h3.882v8.79h3.066v-1.468h-1.442V.71z"/><path d="M25.276 12.854l-2.737 2.064V5.371h-3.793v1.616h2.18v9.147l-.871.657.89 1.171 4.478-3.375v-1.664c0-.08-.088-.113-.147-.069M21.14 3.925h1.775c.078 0 .11-.085.076-.138l-2.238-3.4h-1.774c-.068 0-.116.076-.08.133l2.242 3.405M39.777 2.719H52.59V1.103H39.777zM37.973 8.824h4.556c-.941 2.459-3.303 8.628-3.319 8.673-.026.072.021.125.084.125h14.163c.067 0 .106-.066.082-.128l-2.112-5.525h-1.763a.09.09 0 0 0-.085.123l1.495 3.914h-9.392l2.742-7.182h9.97V7.209H37.973v1.615z"/></g></svg><svg id="event8" width="20" height="20" viewBox="-1 -1 20 20" x="133" y="104" xmlns="http://www.w3.org/2000/svg"><style>.alst0{fill:#fff}</style><path class="alst0" d="M13.1 2c.2 0 .5 0 .7.3.3.3.3.7.2 1l-.2.7h-3.1l1.7-1.7c.2-.3.5-.3.7-.3M4.9 2c.2 0 .5 0 .7.3L7.3 4H4.2L4 3.3c-.1-.3-.1-.7.2-1 .3-.3.6-.3.7-.3m8.2-2c-.8 0-1.5.3-2.1.9L9 2.8 7.1.9C6.5.3 5.7 0 4.9 0c-.7 0-1.5.3-2.1.9-.8.8-1.1 2-.7 3.1H0v7h1v7h16v-7h1V4h-2.1c.4-1.1.1-2.3-.7-3.1-.6-.6-1.4-.9-2.1-.9zM2 9V6h14v3H2zm8 7v-5h5v5h-5zm-7 0v-5h5v5H3z"/></svg><svg id="feedbackf" width="20" height="20" viewBox="-1 -1 20 20" x="159" y="40" xmlns="http://www.w3.org/2000/svg"><style>.amst0{fill:#666}</style><g id="amXMLID_72_"><path id="amXMLID_78_" class="amst0" d="M5 13h4l8.7-8.7c.4-.4.4-1 0-1.4L15.1.3c-.2-.2-.5-.3-.7-.3-.3 0-.5.1-.7.3L5 9v4zm9.4-10.6l1.2 1.2-1 1-1.2-1.2 1-1zM7 9.8l4.4-4.5 1.2 1.2L8.2 11H7V9.8zm9 6.2H2V2h7V0H0v18h18V9h-2v7z"/></g></svg><svg width="18" height="18" viewBox="-1 -1 18 18" id="first-page1" x="18" y="168" xmlns="http://www.w3.org/2000/svg"><g fill="#bbb"><path d="M6 8l5 4V4zM5 4v8h1V4z"/></g></svg><svg width="18" height="18" viewBox="-1 -1 18 18" id="first-page6" x="126" y="168" xmlns="http://www.w3.org/2000/svg"><g fill="#333"><path d="M6 8l5 4V4zM5 4v8h1V4z"/></g></svg><svg width="18" height="18" viewBox="-1 -1 18 18" id="icon-add-whiteb" x="144" y="168" xmlns="http://www.w3.org/2000/svg"><path fill="#fff" fill-rule="evenodd" d="M8 8V3h1v5h5v1H9v5H8V9H3V8h5z"/></svg><svg width="18" height="18" viewBox="-1 -1 18 18" id="icon-add8" x="197" y="108" xmlns="http://www.w3.org/2000/svg"><path fill="#666" fill-rule="evenodd" d="M8 8V3h1v5h5v1H9v5H8V9H3V8h5z"/></svg><svg width="18" height="18" viewBox="-1 -1 18 18" id="icon-arrow-double-lefta" x="197" y="162" xmlns="http://www.w3.org/2000/svg"><path fill="#666" fill-rule="evenodd" d="M9.414 8.243l3.536 3.535-.707.707L8 8.243 12.243 4l.707.707-3.536 3.536zm-4 0l3.536 3.535-.707.707L4 8.243 8.243 4l.707.707-3.536 3.536z"/></svg><svg width="18" height="18" viewBox="-1 -1 18 18" id="icon-arrow-left7" y="186" xmlns="http://www.w3.org/2000/svg"><path fill="#666" fill-rule="evenodd" d="M6.414 8.243l3.536 3.535-.707.707L5 8.243 9.243 4l.707.707z"/></svg><svg width="18" height="18" viewBox="-1 -1 18 18" id="icon-arrow-right-circle-primary7" x="144" y="186" xmlns="http://www.w3.org/2000/svg"><path d="M8 15A7 7 0 1 0 8 1a7 7 0 0 0 0 14zm0 1A8 8 0 1 1 8 0a8 8 0 0 1 0 16zm.8-8L6 6V4l5 4-5 4v-2l2.8-2z" fill="#00A4FF" fill-rule="nonzero"/></svg><svg width="18" height="18" viewBox="-1 -1 18 18" id="icon-arrow-right-circle6" x="162" y="186" xmlns="http://www.w3.org/2000/svg"><path d="M8 15A7 7 0 1 0 8 1a7 7 0 0 0 0 14zm0 1A8 8 0 1 1 8 0a8 8 0 0 1 0 16zm.8-8L6 6V4l5 4-5 4v-2l2.8-2z" fill="#666" fill-rule="nonzero"/></svg><svg width="18" height="18" viewBox="-1 -1 18 18" id="icon-arrow-right-dark2" x="233" y="90" xmlns="http://www.w3.org/2000/svg"><path d="M8.7 8L4.5 3.876 5.9 2.5 11.5 8l-1.4 1.376L5.9 13.5l-1.4-1.376z"/></svg><svg width="18" height="18" viewBox="-1 -1 18 18" id="icon-arrow-right2" x="144" y="220" xmlns="http://www.w3.org/2000/svg"><path fill="#999" d="M8.7 8L4.5 3.876 5.9 2.5 11.5 8l-1.4 1.376L5.9 13.5l-1.4-1.376z"/></svg><svg width="18" height="18" viewBox="-1 -1 18 18" id="icon-arrow-rightc" x="251" y="54" xmlns="http://www.w3.org/2000/svg"><path fill-rule="evenodd" d="M5 6l3 2-3 2v2l6-4-6-4z"/></svg><svg width="18" height="18" viewBox="-1 -1 18 18" id="icon-arrow-rightd" x="251" y="144" xmlns="http://www.w3.org/2000/svg"><path fill="#00A4FF" fill-rule="evenodd" d="M5 6l3 2-3 2v2l6-4-6-4z"/></svg><svg id="icon-bubble-toggle-primary3" width="18" height="18" viewBox="-1 -1 18 18" x="108" y="238" xmlns="http://www.w3.org/2000/svg"><style>.azst0{fill:#00a4ff}</style><path class="azst0" d="M9 7H6v1h1v4h1.9l1-1H9V7zm0-3H7v2h2V4zM8 1C4.1 1 1 4.1 1 8s3.1 7 7 7 7-3.1 7-7-3.1-7-7-7zm0 12.5C5 13.5 2.5 11 2.5 8S5 2.5 8 2.5 13.5 5 13.5 8 11 13.5 8 13.5z"/></svg><svg id="icon-bubble-toggle1" width="18" height="18" viewBox="-1 -1 18 18" x="269" y="126" xmlns="http://www.w3.org/2000/svg"><style>.bast0{fill:#000}</style><path class="bast0" d="M9 7H6v1h1v4h1.9l1-1H9V7zm0-3H7v2h2V4zM8 1C4.1 1 1 4.1 1 8s3.1 7 7 7 7-3.1 7-7-3.1-7-7-7zm0 12.5C5 13.5 2.5 11 2.5 8S5 2.5 8 2.5 13.5 5 13.5 8 11 13.5 8 13.5z"/></svg><svg width="18" height="18" viewBox="-1 -1 18 18" id="icon-calendard" x="269" y="144" xmlns="http://www.w3.org/2000/svg"><g fill-rule="nonzero" fill="none"><path d="M10 4H2v10h12V4h-4zm2-2h4v14H0V2h4V0h2v2h4V0h2v2zM2 5h12v2H2V5z" fill="#334966"/><path fill="#00A4FF" d="M7 8h6v5H7z"/></g></svg><svg width="34" height="34" viewBox="-1 -1 34 34" id="icon-camera8" x="68" y="90" xmlns="http://www.w3.org/2000/svg"><path fill="#FFF" fill-rule="evenodd" d="M6.6 7L9 3h14l2.4 4H32v22H0V7h6.6zM16 23a6 6 0 1 1 0-12 6 6 0 0 1 0 12zm0 2a8 8 0 1 0 0-16 8 8 0 0 0 0 16z"/></svg><svg width="18" height="18" viewBox="-1 -1 18 18" id="icon-catalog-activef" x="159" y="100" xmlns="http://www.w3.org/2000/svg"><g fill="none" fill-rule="evenodd"><path d="M0 0h16v16H0z"/><path d="M0 1h16v2H0V1zm0 12h16v2H0v-2zm0-6h16v2H0V7z" fill="#00A4FF"/></g></svg><svg width="18" height="18" viewBox="-1 -1 18 18" id="icon-catalog8" x="159" y="118" xmlns="http://www.w3.org/2000/svg"><g fill="none" fill-rule="evenodd"><path d="M0 0h16v16H0z"/><path d="M0 1h16v2H0V1zm0 12h16v2H0v-2zm0-6h16v2H0V7z" fill="#666"/></g></svg><svg width="13" height="13" viewBox="-1 -1 13 13" id="icon-clear5" x="180" y="168" xmlns="http://www.w3.org/2000/svg"><g fill="#7C848E" fill-rule="evenodd"><path d="M9.9 0L0 9.9l.707.707 9.9-9.899z"/><path d="M.707 0L0 .707l9.9 9.9.706-.706V9.9z"/></g></svg><svg width="13" height="13" viewBox="-1 -1 13 13" id="icon-clear8" x="198" y="186" xmlns="http://www.w3.org/2000/svg"><g fill="#00a4ff" fill-rule="evenodd"><path d="M9.9 0L0 9.9l.707.707 9.9-9.899z"/><path d="M.707 0L0 .707l9.9 9.9.706-.706V9.9z"/></g></svg><svg width="26" height="26" viewBox="-1 -1 26 26" id="icon-close-circle-white-m7" x="68" y="56" xmlns="http://www.w3.org/2000/svg"><defs><path id="bha" d="M0 0h12v12H0z"/></defs><g fill="none" fill-rule="evenodd"><path fill-rule="nonzero" d="M4 4h16v16H4z"/><g transform="translate(6 6)"><mask id="bhb" fill="#fff"><use xlink:href="#bha"/></mask><path d="M7.292 6l2.431-2.43a.892.892 0 0 0 0-1.293.892.892 0 0 0-1.292 0L6 4.707l-2.43-2.43a.892.892 0 0 0-1.293 0 .892.892 0 0 0 0 1.292L4.707 6l-2.43 2.43a.892.892 0 0 0 0 1.293c.185.185.37.277.646.277a.838.838 0 0 0 .646-.277L6 7.293l2.43 2.43c.185.185.37.277.647.277a.838.838 0 0 0 .646-.277.892.892 0 0 0 0-1.292L7.293 6z" fill="#FFF" mask="url(#bhb)"/></g><circle stroke="#FFF" fill-rule="nonzero" cx="12" cy="12" r="11.5"/></g></svg><svg width="18" height="18" viewBox="-1 -1 18 18" id="icon-close-primary7" x="179" xmlns="http://www.w3.org/2000/svg"><g fill="none" fill-rule="evenodd"><path d="M1 1h14v14H1z"/><path d="M8 7.09l3.636-3.635a.643.643 0 0 1 .91.909L8.908 8l3.636 3.636a.643.643 0 0 1-.909.91L8 8.908l-3.636 3.636a.643.643 0 0 1-.91-.909L7.092 8 3.455 4.364a.643.643 0 1 1 .909-.91L8 7.092z" fill="#00A4FF" fill-rule="nonzero"/></g></svg><svg width="18" height="18" viewBox="-1 -1 18 18" id="icon-close0" x="179" y="18" xmlns="http://www.w3.org/2000/svg"><g fill="none" fill-rule="evenodd"><path d="M1 1h14v14H1z"/><path d="M8 7.09l3.636-3.635a.643.643 0 0 1 .91.909L8.908 8l3.636 3.636a.643.643 0 0 1-.909.91L8 8.908l-3.636 3.636a.643.643 0 0 1-.91-.909L7.092 8 3.455 4.364a.643.643 0 1 1 .909-.91L8 7.092z" fill="#666" fill-rule="nonzero"/></g></svg><svg width="13" height="9" viewBox="-1 -1 13 9" id="icon-collapse-down-s-disabled9" x="111" y="150" xmlns="http://www.w3.org/2000/svg"><path d="M5.5 4.2L1.376 0 0 1.4 5.5 7l1.376-1.4L11 1.4 9.624 0z" fill="#CCC" fill-rule="nonzero"/></svg><svg width="13" height="9" viewBox="-1 -1 13 9" id="icon-collapse-down-s6" x="44" y="204" xmlns="http://www.w3.org/2000/svg"><path d="M5.5 4.2L1.376 0 0 1.4 5.5 7l1.376-1.4L11 1.4 9.624 0z" fill="#999" fill-rule="nonzero"/></svg><svg width="13" height="9" viewBox="-1 -1 13 9" id="icon-collapse-downa" x="31" y="204" xmlns="http://www.w3.org/2000/svg"><path d="M5.5 4.2L1.376 0 0 1.4 5.5 7l1.376-1.4L11 1.4 9.624 0z" fill="#666" fill-rule="nonzero"/></svg><svg width="13" height="9" viewBox="-1 -1 13 9" id="icon-collapse-up-s-primary1" x="18" y="204" xmlns="http://www.w3.org/2000/svg"><path d="M5.5 2.8L1.376 7 0 5.6 5.5 0l1.376 1.4L11 5.6 9.624 7z" fill="#00a4ff" fill-rule="nonzero"/></svg><svg width="13" height="9" viewBox="-1 -1 13 9" id="icon-collapse-up2" x="163" y="150" xmlns="http://www.w3.org/2000/svg"><path d="M5.5 2.8L1.376 7 0 5.6 5.5 0l1.376 1.4L11 5.6 9.624 7z" fill="#666" fill-rule="nonzero"/></svg><svg width="18" height="18" viewBox="-1 -1 18 18" id="icon-comment-hint3" x="179" y="126" xmlns="http://www.w3.org/2000/svg"><g fill-rule="nonzero" fill="none"><path d="M0 0h16v16H0z"/><path d="M8 13h8v2H6l2-2zm-6-1.172V13h1.172l8-8L10 3.828l-8 8zM10 1l4 4L4 15H0v-4L10 1z" fill="#CCC"/></g></svg><svg id="icon-comment-reply-primaryd" data-name="图层 1" width="18" height="18" viewBox="-1 -1 18 18" x="179" y="144" xmlns="http://www.w3.org/2000/svg"><defs><style/></defs><path class="bqcls-1" fill="#00A4FF" d="M13 1H3a2 2 0 0 0-2 2v7a2 2 0 0 0 2 2h4v3l4-3h2a2 2 0 0 0 2-2V3a2 2 0 0 0-2-2zm1 9a1 1 0 0 1-1 1h-2.3l-.25.17L8 13.13V11H3a1 1 0 0 1-1-1V3a1 1 0 0 1 1-1h10a1 1 0 0 1 1 1z"/></svg><svg id="icon-comment-reply5" data-name="图层 1" width="18" height="18" viewBox="-1 -1 18 18" y="168" xmlns="http://www.w3.org/2000/svg"><defs><style/></defs><path class="brcls-1" fill="#999" d="M13 1H3a2 2 0 0 0-2 2v7a2 2 0 0 0 2 2h4v3l4-3h2a2 2 0 0 0 2-2V3a2 2 0 0 0-2-2zm1 9a1 1 0 0 1-1 1h-2.3l-.25.17L8 13.13V11H3a1 1 0 0 1-1-1V3a1 1 0 0 1 1-1h10a1 1 0 0 1 1 1z"/></svg><svg width="26" height="26" viewBox="-1 -1 26 26" id="icon-correct-circle-mb" x="133" y="26" xmlns="http://www.w3.org/2000/svg"><g fill-rule="nonzero" fill="none"><path d="M12 24C5.373 24 0 18.627 0 12S5.373 0 12 0s12 5.373 12 12-5.373 12-12 12z" fill="#0ABF5B"/><path fill="#FFF" d="M8 11l2.997 3L16 8l1 1-6 8-4-5z"/></g></svg><svg width="18" height="18" viewBox="-1 -1 18 18" id="icon-correct-circle3" x="36" y="168" xmlns="http://www.w3.org/2000/svg"><g fill="none" fill-rule="evenodd"><circle cx="8" cy="8" r="8" fill="#0ABF5B" fill-rule="nonzero"/><path fill="#FFF" d="M5.154 6.6L4 7.8 7.077 11 12 6.2 10.846 5 7.077 8.6z"/></g></svg><svg width="18" height="18" viewBox="-1 -1 18 18" id="icon-datenote-arrow-active6" x="54" y="168" xmlns="http://www.w3.org/2000/svg"><path d="M5 1l8 7-8 7V1zm0 11.667L10.333 8 5 3.333v9.334z" fill="#000" fill-rule="nonzero"/></svg><svg width="18" height="18" viewBox="-1 -1 18 18" id="icon-datenote-arrow9" x="72" y="168" xmlns="http://www.w3.org/2000/svg"><path d="M5 1l8 7-8 7V1zm0 11.667L10.333 8 5 3.333v9.334z" fill="#979797" fill-rule="nonzero"/></svg><svg width="18" height="18" viewBox="-1 -1 18 18" id="icon-delete0" x="90" y="168" xmlns="http://www.w3.org/2000/svg"><g fill="#7C848E" fill-rule="evenodd"><path d="M0 5h16V3H0zM5 2h5.999V0H5z"/><path d="M2 16h2V4H2zM12 16h2.001V4H12z"/><path d="M2 16h12.001v-2H2zM5 13h2V6H5zM9 13h2V6H9z"/></g></svg><svg width="18" height="18" viewBox="-1 -1 18 18" id="icon-delete8" x="108" y="168" xmlns="http://www.w3.org/2000/svg"><g fill="#7C848E" fill-rule="evenodd"><path d="M0 5h16V3H0zM5 2h5.999V0H5z"/><path d="M2 16h2V4H2zM12 16h2.001V4H12z"/><path d="M2 16h12.001v-2H2zM5 13h2V6H5zM9 13h2V6H9z"/></g></svg><svg width="26" height="26" viewBox="-1 -1 26 26" id="icon-dialog-success5" x="102" y="90" xmlns="http://www.w3.org/2000/svg"><path d="M12 24C5.373 24 0 18.627 0 12S5.373 0 12 0s12 5.373 12 12-5.373 12-12 12zm0-2c5.523 0 10-4.477 10-10S17.523 2 12 2 2 6.477 2 12s4.477 10 10 10zm4.24-14.65l1.52 1.3-6.704 7.82-4.763-4.763 1.414-1.414 3.237 3.236 5.297-6.18z" fill="#0ABF5B" fill-rule="nonzero"/></svg><svg width="26" height="26" viewBox="-1 -1 26 26" id="icon-dialog-warning0" x="133" y="78" xmlns="http://www.w3.org/2000/svg"><path fill="#F0B64B" d="M12 22c5.523 0 10-4.477 10-10S17.523 2 12 2 2 6.477 2 12s4.477 10 10 10zm0 2C5.373 24 0 18.627 0 12S5.373 0 12 0s12 5.373 12 12-5.373 12-12 12zM11 6v8h2V6h-2zm0 10v2h2v-2h-2z"/></svg><svg width="18" height="18" viewBox="-1 -1 18 18" id="icon-discuss-activec" x="162" y="168" xmlns="http://www.w3.org/2000/svg"><path d="M3.078 14H8a6 6 0 1 0-4.884-2.514l.665.93L3.078 14zM0 8a8 8 0 1 1 8 8H0l1.49-3.35A7.964 7.964 0 0 1 0 8z" fill="#00A4FF" fill-rule="nonzero"/></svg><svg width="18" height="18" viewBox="-1 -1 18 18" id="icon-discusse" x="197" xmlns="http://www.w3.org/2000/svg"><path d="M3.078 14H8a6 6 0 1 0-4.884-2.514l.665.93L3.078 14zM0 8a8 8 0 1 1 8 8H0l1.49-3.35A7.964 7.964 0 0 1 0 8z" fill="#666" fill-rule="nonzero"/></svg><svg width="18" height="18" viewBox="-1 -1 18 18" id="icon-doc-circle6" x="197" y="18" xmlns="http://www.w3.org/2000/svg"><g fill="#7C848E" fill-rule="evenodd"><path d="M3 9h8V8H3z"/><path d="M3 9h8V8H3zM3 13h8v-1H3z"/><path d="M3 13h8v-1H3zM3 11h6v-1H3z"/><path d="M3 11h6v-1H3z"/><path d="M1 0v16h14V5l-5-5H1zm1 1h7v5h5v9H2V1zm8 .43L13.57 5H10V1.43z"/></g></svg><svg width="18" height="18" viewBox="-1 -1 18 18" id="icon-doc-closea" x="197" y="36" xmlns="http://www.w3.org/2000/svg"><g fill="none" fill-rule="evenodd"><path d="M1 1h14v14H1z"/><path d="M8 7.09l3.636-3.635a.643.643 0 0 1 .91.909L8.908 8l3.636 3.636a.643.643 0 0 1-.909.91L8 8.908l-3.636 3.636a.643.643 0 0 1-.91-.909L7.092 8 3.455 4.364a.643.643 0 1 1 .909-.91L8 7.092z" fill="#999" fill-rule="nonzero"/></g></svg><svg width="18" height="18" viewBox="-1 -1 18 18" id="icon-download-primary7" x="197" y="54" xmlns="http://www.w3.org/2000/svg"><path d="M2 14h12V6h2v10H0V6h2v8zm7-8h2l-3 4-3-4h2V0h2v6z" fill="#00A4FF" fill-rule="nonzero"/></svg><svg width="18" height="18" viewBox="-1 -1 18 18" id="icon-download-primary7" x="197" y="72" xmlns="http://www.w3.org/2000/svg"><path d="M2 14h12V6h2v10H0V6h2v8zm7-8h2l-3 4-3-4h2V0h2v6z" fill="#00A4FF" fill-rule="nonzero"/></svg><svg width="18" height="18" viewBox="-1 -1 18 18" id="icon-dropdown-right7" x="197" y="90" xmlns="http://www.w3.org/2000/svg"><path fill="#666" d="M5 13v-1.302L9.438 8 5 4.302V3l6 5-6 5z" opacity=".99"/></svg><svg data-name="图层 1" width="17" height="17" viewBox="-1 -1 17 17" id="icon-edit-activeb" x="287" y="233" xmlns="http://www.w3.org/2000/svg"><g fill="#00a4ff"><path d="M8 0H2a2 2 0 0 0-2 2v11a2 2 0 0 0 2 2h11a2 2 0 0 0 2-2V7h-1v6a1 1 0 0 1-1 1H2a1 1 0 0 1-1-1V2a1 1 0 0 1 1-1h6V0z"/><path d="M12 1.42L13.59 3l-7 7H5V8.42l7-7M12 0L4 8v3h3l8-8-3-3z"/></g></svg><svg width="18" height="18" viewBox="-1 -1 18 18" id="icon-edit-s-primarye" x="197" y="126" xmlns="http://www.w3.org/2000/svg"><g fill-rule="nonzero" fill="none"><path d="M0 0h16v16H0z"/><g fill="#00A4FF"><path d="M10.448 2.886l1.885-1.885L15 3.668l-1.886 1.885zM2 11.334V14h2.666l7.505-7.505-2.666-2.666z"/></g></g></svg><svg data-name="图层 1" width="17" height="17" viewBox="-1 -1 17 17" id="icon-edit5" x="287" y="216" xmlns="http://www.w3.org/2000/svg"><g fill="#7c848e"><path d="M8 0H2a2 2 0 0 0-2 2v11a2 2 0 0 0 2 2h11a2 2 0 0 0 2-2V7h-1v6a1 1 0 0 1-1 1H2a1 1 0 0 1-1-1V2a1 1 0 0 1 1-1h6V0z"/><path d="M12 1.42L13.59 3l-7 7H5V8.42l7-7M12 0L4 8v3h3l8-8-3-3z"/></g></svg><svg width="26" height="26" viewBox="-1 -1 26 26" id="icon-email-m6" x="26" y="124" xmlns="http://www.w3.org/2000/svg"><g fill="none" fill-rule="evenodd"><path d="M0 0h24v24H0z"/><path d="M20 4H4c-1.1 0-2 .9-2 2v12c0 1.1.9 2 2 2h16c1.1 0 2-.9 2-2V6c0-1.1-.9-2-2-2zm0 2l-8 4.99L4 6h16zm0 12H4V8l8 5 8-5v10z" fill="#666" fill-rule="nonzero"/></g></svg><svg width="26" height="26" viewBox="-1 -1 26 26" id="icon-error-hole-m5" x="52" y="124" xmlns="http://www.w3.org/2000/svg"><path fill="#F74042" d="M12 22c5.523 0 10-4.477 10-10S17.523 2 12 2 2 6.477 2 12s4.477 10 10 10zm0 2C5.373 24 0 18.627 0 12S5.373 0 12 0s12 5.373 12 12-5.373 12-12 12zM11 6v8h2V6h-2zm0 10v2h2v-2h-2z"/></svg><svg data-name="图层 1" width="18" height="18" viewBox="-1 -1 18 18" id="icon-errora" x="18" y="186" xmlns="http://www.w3.org/2000/svg"><path d="M1 8a7 7 0 1 0 7-7 7 7 0 0 0-7 7z" fill="#e1504a"/><path fill="#fff" d="M7 3h2v6H7zM7 11h2v2H7z"/></svg><svg data-name="图层 1" width="18" height="18" viewBox="-1 -1 18 18" id="icon-errora" x="36" y="186" xmlns="http://www.w3.org/2000/svg"><path d="M1 8a7 7 0 1 0 7-7 7 7 0 0 0-7 7z" fill="#e1504a"/><path fill="#fff" d="M7 3h2v6H7zM7 11h2v2H7z"/></svg><svg width="18" height="18" viewBox="-1 -1 18 18" id="icon-experiment-circle5" x="54" y="186" xmlns="http://www.w3.org/2000/svg"><g fill="#7C848E" fill-rule="evenodd"><path d="M10 0v4.02L14.595 15H1.404L6 4.001v-4H2v1h3v3L0 16h16L11 4.02V1h3V0z"/><path d="M6.995 10.005a1 1 0 1 1-2 0 1 1 0 0 1 2 0M12.005 12.005a2 2 0 1 1-4.001-.001 2 2 0 0 1 4.001.001M10.716 9.203l-4.75-3.27.567-.824 4.75 3.271z"/></g></svg><svg data-name="图层 1" width="18" height="18" viewBox="-1 -1 18 18" id="icon-explaind" x="72" y="186" xmlns="http://www.w3.org/2000/svg"><path fill="#00a4ff" d="M9 7H6v1h1v4h1.917l1-1H9V7zM7 5.99h2v-2H7v2z"/><path d="M8 2a6 6 0 1 1-6 6 6.007 6.007 0 0 1 6-6m0-2a8 8 0 1 0 8 8 8 8 0 0 0-8-8z" fill="#00a4ff"/></svg><svg id="icon-filter-activeb" width="12" height="11" viewBox="-1 -1 12 11" x="12" y="274" xmlns="http://www.w3.org/2000/svg"><style>.cqst0{fill:#00a4ff}</style><g id="cqPage-1"><g id="cq公告标签-移动端" transform="translate(-317 -122)"><g id="cq筛选-0-01-01" transform="translate(317 122)"><path id="cqFill-1" class="cqst0" d="M0 0l4 4v5l2-1V4l4-4z"/></g></g></g></svg><svg id="icon-filter-primaryb" width="12" height="11" viewBox="-1 -1 12 11" x="24" y="274" xmlns="http://www.w3.org/2000/svg"><style>.crst0{fill:#00a4ff}</style><g id="crPage-1"><g id="cr公告标签-移动端" transform="translate(-317 -122)"><g id="cr筛选-0-01-01" transform="translate(317 122)"><path id="crFill-1" class="crst0" d="M0 0l4 4v5l2-1V4l4-4z"/></g></g></g></svg><svg id="icon-filter-whitef" width="12" height="11" viewBox="-1 -1 12 11" y="274" xmlns="http://www.w3.org/2000/svg"><style>.csst0{fill:#fff}</style><g id="csPage-1"><g id="cs公告标签-移动端" transform="translate(-317 -122)"><g id="cs筛选-0-01-01" transform="translate(317 122)"><path id="csFill-1" class="csst0" d="M0 0l4 4v5l2-1V4l4-4z"/></g></g></g></svg><svg id="icon-filter4" width="12" height="11" viewBox="-1 -1 12 11" x="270" y="256" xmlns="http://www.w3.org/2000/svg"><style>.ctst0{fill:#666}</style><g id="ctPage-1"><g id="ct公告标签-移动端" transform="translate(-317 -122)"><g id="ct筛选-0-01-01" transform="translate(317 122)"><path id="ctFill-1" class="ctst0" d="M0 0l4 4v5l2-1V4l4-4z"/></g></g></g></svg><svg id="icon-filter4" width="12" height="11" viewBox="-1 -1 12 11" x="252" y="238" xmlns="http://www.w3.org/2000/svg"><style>.cust0{fill:#666}</style><g id="cuPage-1"><g id="cu公告标签-移动端" transform="translate(-317 -122)"><g id="cu筛选-0-01-01" transform="translate(317 122)"><path id="cuFill-1" class="cust0" d="M0 0l4 4v5l2-1V4l4-4z"/></g></g></g></svg><svg width="18" height="18" viewBox="-1 -1 18 18" id="icon-fold-primary6" x="180" y="186" xmlns="http://www.w3.org/2000/svg"><g fill="#00A4FF" fill-rule="nonzero"><path d="M2 1l6 6 6-6h-2.828L8 4.172 4.828 1H2zM2 15l6-6 6 6h-2.828L8 11.828 4.828 15H2z"/></g></svg><svg width="18" height="18" viewBox="-1 -1 18 18" id="icon-fold4" x="215" xmlns="http://www.w3.org/2000/svg"><g fill="#999" fill-rule="nonzero"><path d="M2 1l6 6 6-6h-2.828L8 4.172 4.828 1H2zM2 15l6-6 6 6h-2.828L8 11.828 4.828 15H2z"/></g></svg><svg width="18" height="18" viewBox="-1 -1 18 18" id="icon-footer-catalog-primaryf" x="215" y="18" xmlns="http://www.w3.org/2000/svg"><g fill="none" fill-rule="evenodd"><path d="M0 0h16v16H0z"/><path d="M0 1h16v2H0V1zm0 12h16v2H0v-2zm0-6h16v2H0V7z" fill="#00A4FF"/></g></svg><svg width="18" height="18" viewBox="-1 -1 18 18" id="icon-footer-catalog8" x="215" y="36" xmlns="http://www.w3.org/2000/svg"><g fill="none" fill-rule="evenodd"><path d="M0 0h16v16H0z"/><path d="M0 1h16v2H0V1zm0 12h16v2H0v-2zm0-6h16v2H0V7z" fill="#666"/></g></svg><svg width="18" height="18" viewBox="-1 -1 18 18" id="icon-footer-discuss-primary1" x="215" y="54" xmlns="http://www.w3.org/2000/svg"><path d="M1.539 15H8a7 7 0 1 0-5.698-2.932l.333.465L1.54 15z" stroke="#00A4FF" stroke-width="2" fill-rule="nonzero" fill="none"/></svg><svg width="18" height="18" viewBox="-1 -1 18 18" id="icon-footer-discuss2" x="215" y="72" xmlns="http://www.w3.org/2000/svg"><path d="M1.539 15H8a7 7 0 1 0-5.698-2.932l.333.465L1.54 15z" stroke="#666" stroke-width="2" fill-rule="nonzero" fill="none"/></svg><svg width="18" height="18" viewBox="-1 -1 18 18" id="icon-footer-recommend-primary9" x="215" y="90" xmlns="http://www.w3.org/2000/svg"><g fill-rule="nonzero" fill="none"><path d="M2.78 1L1.108 7.693 8 14.586l6.893-6.893L13.219 1H2.781z" stroke="#00A4FF" stroke-width="2"/><path fill="#00A4FF" d="M5 5h6v2H5z"/></g></svg><svg width="18" height="18" viewBox="-1 -1 18 18" id="icon-footer-recommendf" x="215" y="108" xmlns="http://www.w3.org/2000/svg"><g fill-rule="nonzero" fill="none"><path d="M2.78 1L1.108 7.693 8 14.586l6.893-6.893L13.219 1H2.781z" stroke="#666" stroke-width="2"/><path fill="#666" d="M5 5h6v2H5z"/></g></svg><svg width="18" height="18" viewBox="-1 -1 18 18" id="icon-inline-option-primary2" x="215" y="126" xmlns="http://www.w3.org/2000/svg"><g fill="none" fill-rule="evenodd"><circle cx="8" cy="8" r="8"/><path d="M2 7.5a1.5 1.5 0 1 1 3 0 1.5 1.5 0 0 1-3 0zm5 0a1.5 1.5 0 1 1 3 0 1.5 1.5 0 0 1-3 0zm5 0a1.5 1.5 0 1 1 3 0 1.5 1.5 0 0 1-3 0z" fill="#00A4FF" fill-rule="nonzero"/></g></svg><svg width="18" height="18" viewBox="-1 -1 18 18" id="icon-inline-option-whited" x="215" y="144" xmlns="http://www.w3.org/2000/svg"><g fill="none" fill-rule="evenodd"><circle cx="8" cy="8" r="8"/><path d="M2 7.5a1.5 1.5 0 1 1 3 0 1.5 1.5 0 0 1-3 0zm5 0a1.5 1.5 0 1 1 3 0 1.5 1.5 0 0 1-3 0zm5 0a1.5 1.5 0 1 1 3 0 1.5 1.5 0 0 1-3 0z" fill="#FFF" fill-rule="nonzero"/></g></svg><svg width="18" height="18" viewBox="-1 -1 18 18" id="icon-inline-option5" x="215" y="162" xmlns="http://www.w3.org/2000/svg"><g fill="none" fill-rule="evenodd"><circle cx="8" cy="8" r="8"/><path d="M2 7.5a1.5 1.5 0 1 1 3 0 1.5 1.5 0 0 1-3 0zm5 0a1.5 1.5 0 1 1 3 0 1.5 1.5 0 0 1-3 0zm5 0a1.5 1.5 0 1 1 3 0 1.5 1.5 0 0 1-3 0z" fill="#666" fill-rule="nonzero"/></g></svg><svg width="18" height="16" viewBox="-1 -1 18 16" id="icon-layer-hide3" x="215" y="180" xmlns="http://www.w3.org/2000/svg"><g fill="none" fill-rule="evenodd"><path d="M0-1h16v16H0z"/><path d="M0 0h16v2H0V0zm0 12h16v2H0v-2zm0-6h10v2H0V6zm12-2l4 3-4 3V4z" fill="#666"/></g></svg><svg width="18" height="16" viewBox="-1 -1 18 16" id="icon-layer-show6" y="204" xmlns="http://www.w3.org/2000/svg"><g fill="none" fill-rule="evenodd"><path d="M0-1h16v16H0z"/><path d="M0 0h16v2H0V0zm0 12h16v2H0v-2zm6-6h10v2H6V6zM4 4v6L0 7l4-3z" fill="#666"/></g></svg><svg width="8" height="10" viewBox="-1 -1 8 10" id="icon-learnnav-back2" x="150" y="124" xmlns="http://www.w3.org/2000/svg"><path fill="#999" d="M2.453 4L6 1.031 4.773 0 0 4l4.773 4L6 6.969z" fill-rule="evenodd" opacity=".9"/></svg><svg width="18" height="18" viewBox="-1 -1 18 18" id="icon-learnnav-discuss-activec" x="233" y="18" xmlns="http://www.w3.org/2000/svg"><path d="M3.078 14H8a6 6 0 1 0-4.884-2.514l.665.93L3.078 14zM0 8a8 8 0 1 1 8 8H0l1.49-3.35A7.964 7.964 0 0 1 0 8z" fill="#00A4FF" fill-rule="nonzero"/></svg><svg width="18" height="18" viewBox="-1 -1 18 18" id="icon-learnnav-discussf" x="233" y="36" xmlns="http://www.w3.org/2000/svg"><path d="M3.078 14H8a6 6 0 1 0-4.884-2.514l.665.93L3.078 14zM0 8a8 8 0 1 1 8 8H0l1.49-3.35A7.964 7.964 0 0 1 0 8z" fill="#FFF" fill-rule="nonzero"/></svg><svg width="18" height="18" viewBox="-1 -1 18 18" id="icon-learnnav-download-active7" x="233" y="54" xmlns="http://www.w3.org/2000/svg"><path d="M2 14h12V6h2v10H0V6h2v8zm7-8h2l-3 4-3-4h2V0h2v6z" fill="#00A4FF" fill-rule="nonzero"/></svg><svg width="18" height="18" viewBox="-1 -1 18 18" id="icon-learnnav-downloadd" x="233" y="72" xmlns="http://www.w3.org/2000/svg"><path d="M2 14h12V6h2v10H0V6h2v8zm7-8h2l-3 4-3-4h2V0h2v6z" fill="#FFF" fill-rule="nonzero"/></svg><svg width="99" height="16" viewBox="-1 -1 99 16" id="icon-learnnav-logo5" xmlns="http://www.w3.org/2000/svg"><g fill="#FFF" fill-rule="evenodd"><g fill-rule="nonzero"><path d="M17.5 11.433c-.311.311-.933.778-2.022.778H8.789c2.022-1.944 3.733-3.578 3.889-3.733a12.1 12.1 0 0 1 .933-.856c.778-.7 1.4-.778 1.945-.778.777 0 1.4.312 1.944.778 1.089 1.011 1.089 2.8 0 3.811zm1.322-5.055a4.345 4.345 0 0 0-3.189-1.4c-1.089 0-2.022.389-2.877 1.01-.312.312-.778.623-1.167 1.09-.311.31-7 6.844-7 6.844.389.078.855.078 1.244.078h8.478c.622 0 1.089 0 1.556-.078a4.78 4.78 0 0 0 2.877-1.244c1.79-1.711 1.79-4.59.078-6.3z"/><path d="M7.933 5.911c-.855-.622-1.71-.933-2.722-.933a4.345 4.345 0 0 0-3.189 1.4 4.53 4.53 0 0 0 .078 6.378c.778.7 1.556 1.088 2.489 1.166l1.789-1.71H5.367c-1.011-.079-1.634-.39-2.023-.779a2.796 2.796 0 0 1-.077-3.889C3.81 7 4.433 6.767 5.21 6.767c.467 0 1.167.077 1.867.777.31.312 1.166.934 1.478 1.245h.077L9.8 7.622v-.078C9.256 7 8.4 6.3 7.933 5.911"/><path d="M16.1 3.967A6.07 6.07 0 0 0 10.422 0C7.39 0 4.978 2.256 4.512 5.056c.232 0 .466-.078.777-.078s.7.078 1.011.078C6.689 3.11 8.4 1.71 10.422 1.71c1.711 0 3.19 1.011 3.89 2.489 0 0 .077.078.077 0 .544-.078 1.167-.233 1.711-.233 0 .077 0 .077 0 0"/></g><path d="M78.11 9.8a9.215 9.215 0 0 0 3.702 2.763v1.371a.066.066 0 0 1-.088.062 10.599 10.599 0 0 1-4.692-3.342 10.483 10.483 0 0 1-1.61-2.825 10.328 10.328 0 0 1-1.464 2.65 10.444 10.444 0 0 1-4.83 3.517.066.066 0 0 1-.088-.061V12.56a9.075 9.075 0 0 0 3.832-2.926 9.157 9.157 0 0 0 1.768-4.292h-5.6V4.087h5.694l.001-.085V.198h1.378v3.889h5.699v1.256h-5.614a9.148 9.148 0 0 0 1.912 4.458zm13.14-.77h5.306v1.257h-5.507v3.615H87.29l-.4-1.287a.065.065 0 0 1 .062-.084h2.72v-2.244h-6.173V9.031h6.115v-.44l2.498-1.617h-6.226V5.717h8.24V7.17L91.25 9.031zm-6.06-4.753v1.929h-1.378V3.02H91.9L93.819.25h1.55c.052 0 .083.058.053.101l-1.848 2.67h2.642v3.185h-1.378v-1.93H85.19zm.577-2.06L84.43.352a.065.065 0 0 1 .054-.103h1.565l1.337 1.866c.03.043 0 .102-.053.102h-1.566zm3.703.229l-1.192-2.1a.065.065 0 0 1 .056-.097h1.471l1.193 2.1a.065.065 0 0 1-.057.097h-1.47zM26.678 4.436h1.608V1.724h-1.608v2.712zm0 3.762h1.608V5.464h-1.608v2.734zm8.802 2.594H29.43V.582h-3.9v8.096c0 2.077-.17 3.654-.517 5.05-.037.13.003.165.07.165h1.152c.384-1.92.434-3.512.44-4.667h1.61v3.552h-1.143c-.055 0-.098.036-.07.115l.315 1.027h2.043v-1.986h6.049v-1.142z"/><path d="M32.21 6.4c.292-.335.574-.726.838-1.188h2.043c.275.45.571.843.877 1.188H32.21zm4.286-1.188h1.542V4.184h-4.49c.135-.328.257-.68.367-1.062h3.841V2.094h-1.125l.421-1.428c.023-.076-.018-.106-.067-.106h-.977l-.453 1.534h-1.382a26.7 26.7 0 0 0 .343-1.991C34.528.017 34.482 0 34.425 0h-1.112a23.084 23.084 0 0 1-.386 2.094h-.677L31.797.56h-.977c-.05 0-.09.03-.068.106l.422 1.428h-1.096v1.028h2.558a9.88 9.88 0 0 1-.42 1.062h-2.42v1.028h1.818c-.733 1.035-1.516 1.512-1.829 1.702V8.09c0 .06.047.122.234.017.34-.192.703-.409 1.07-.679h4.275l-.036 1.54h-3.375l.051-.92c0-.04-.029-.07-.07-.07h-1.08l-.108 1.948c0 .04.029.07.07.07h5.823v2.78h-2.624c-.056 0-.099.035-.07.115l.315 1.027h3.642v-4.95h-1.426l.047-2c.534.494 1.074.861 1.566 1.139.187.105.234.042.234-.017V6.914a5.907 5.907 0 0 1-1.827-1.702zM47.51 5.86h3.02V1.696h-3.02V5.86zM51.792.553h-7.933v1.143h2.388V5.86H43.51v1.142h2.737v6.984h1.263V7.002h3.02v6.838h2.384v-1.143h-1.122V.553z"/><path d="M44.66 9.998l-2.13 1.605V4.177h-2.95v1.257h1.696v7.115l-.678.51.693.912 3.482-2.626v-1.294c0-.061-.068-.087-.114-.053M41.443 3.053h1.38c.06 0 .086-.066.059-.107L41.142.3h-1.38c-.053 0-.091.06-.062.104l1.743 2.649M55.938 2.115h9.965V.858h-9.965zM54.534 6.863h3.544c-.732 1.912-2.569 6.711-2.581 6.746-.02.056.016.097.065.097h11.016c.052 0 .082-.051.063-.1L65 9.31h-1.372a.07.07 0 0 0-.065.096l1.162 3.044H57.42l2.132-5.586h7.754V5.607H54.534v1.256z"/></g></svg><svg width="18" height="18" viewBox="-1 -1 18 18" id="icon-learnnav-menu-activef" x="233" y="108" xmlns="http://www.w3.org/2000/svg"><g fill="none" fill-rule="evenodd"><path d="M0 0h16v16H0z"/><path d="M0 1h16v2H0V1zm0 12h16v2H0v-2zm0-6h16v2H0V7z" fill="#00A4FF"/></g></svg><svg width="18" height="18" viewBox="-1 -1 18 18" id="icon-learnnav-menu1" x="233" y="126" xmlns="http://www.w3.org/2000/svg"><g fill="none" fill-rule="evenodd"><path d="M0 0h16v16H0z"/><path d="M0 1h16v2H0V1zm0 12h16v2H0v-2zm0-6h16v2H0V7z" fill="#FFF"/></g></svg><svg width="18" height="18" viewBox="-1 -1 18 18" id="icon-link-arrow-right-active3" x="233" y="144" xmlns="http://www.w3.org/2000/svg"><path fill="#00A4FF" d="M4.547 8L1 5.031 2.227 4 7 8l-4.773 4L1 10.969z" fill-rule="evenodd"/></svg><svg width="18" height="18" viewBox="-1 -1 18 18" id="icon-link-arrow-right0" x="233" y="162" xmlns="http://www.w3.org/2000/svg"><path fill="#666" d="M4.547 8L1 5.031 2.227 4 7 8l-4.773 4L1 10.969z" fill-rule="evenodd"/></svg><svg width="18" height="18" viewBox="-1 -1 18 18" id="icon-link-circle5" x="233" y="180" xmlns="http://www.w3.org/2000/svg"><g fill="#7C848E" fill-rule="evenodd"><path d="M8 0a8 8 0 1 0 0 16A8 8 0 0 0 8 0m0 1c3.859 0 7 3.14 7 7 0 3.859-3.141 7-7 7s-7-3.141-7-7c0-3.86 3.141-7 7-7"/><path d="M9.06 6.94l-.707.706a1 1 0 0 0-1.413 0L4.817 9.768a.999.999 0 1 0 1.415 1.413l1.413-1.413.708.707-1.414 1.414a2.003 2.003 0 0 1-2.829 0 2.003 2.003 0 0 1 0-2.829l2.122-2.12a2.005 2.005 0 0 1 2.827 0"/><path d="M7.646 8.354a1 1 0 0 0 1.414 0l2.121-2.121a1 1 0 1 0-1.413-1.415L8.352 6.232l-.707-.708L9.06 4.11a2.005 2.005 0 0 1 2.829 0 2.004 2.004 0 0 1 0 2.83L9.768 9.06a2.005 2.005 0 0 1-2.829 0l.707-.707z"/></g></svg><svg width="12" height="12" viewBox="-1 -1 12 12" id="icon-linkchainf" y="285" xmlns="http://www.w3.org/2000/svg"><path d="M5 0l2.146 2.147-2.768 2.767.708.706 2.767-2.766 2.146 2.145V0h-5zM0 0v10h9.999V7h-1v2H1V1H3V0H0z" fill="#00A4FF" fill-rule="evenodd"/></svg><svg width="18" height="18" viewBox="-1 -1 18 18" id="icon-live-primary5" y="220" xmlns="http://www.w3.org/2000/svg"><g fill-rule="nonzero" fill="none"><path d="M0 0h16v16H0z"/><path d="M1 9h2v6H1V9zm4-8h2v14H5V1zm4 4h2v10H9V5zm4 4h2v6h-2V9z" fill="#00A4FF"/></g></svg><svg data-name="图层 1" width="18" height="12" viewBox="-1 -1 18 12" id="icon-live-redc" x="159" y="136" xmlns="http://www.w3.org/2000/svg"><path d="M11.01 1a.19.19 0 0 1 0 .11V9h-10a.16.16 0 0 1 0-.12V1.11 1h10m0-1h-10a1.06 1.06 0 0 0-1 1.11v7.78a1.06 1.06 0 0 0 1 1.11h10a1.06 1.06 0 0 0 1-1.11V1.11a1.06 1.06 0 0 0-1-1.11z" fill="#e1504a"/><path d="M15.01 2.26v5.48l-3-1.27V3.53l3-1.28m.5-1.25a.47.47 0 0 0-.19 0l-4 1.7a.53.53 0 0 0-.31.49v3.58a.53.53 0 0 0 .31.49l4 1.7a.47.47 0 0 0 .19 0 .52.52 0 0 0 .5-.53v-6.9a.52.52 0 0 0-.5-.53zM7.81 5l-3 2V3l3 2z" fill="#e1504a"/></svg><svg width="18" height="18" viewBox="-1 -1 18 18" id="icon-live-white0" x="18" y="220" xmlns="http://www.w3.org/2000/svg"><g fill-rule="nonzero" fill="none"><path d="M0 0h16v16H0z"/><path d="M1 9h2v6H1V9zm4-8h2v14H5V1zm4 4h2v10H9V5zm4 4h2v6h-2V9z" fill="#FFF"/></g></svg><svg data-name="图层 1" width="18" height="12" viewBox="-1 -1 18 12" id="icon-liveb" x="54" y="150" xmlns="http://www.w3.org/2000/svg"><path d="M11.01 1a.19.19 0 0 1 0 .11V9h-10a.16.16 0 0 1 0-.12V1.11 1h10m0-1h-10a1.06 1.06 0 0 0-1 1.11v7.78a1.06 1.06 0 0 0 1 1.11h10a1.06 1.06 0 0 0 1-1.11V1.11a1.06 1.06 0 0 0-1-1.11z" fill="#fff"/><path d="M15.01 2.26v5.48l-3-1.27V3.53l3-1.28m.5-1.25a.47.47 0 0 0-.19 0l-4 1.7a.53.53 0 0 0-.31.49v3.58a.53.53 0 0 0 .31.49l4 1.7a.47.47 0 0 0 .19 0 .52.52 0 0 0 .5-.53v-6.9a.52.52 0 0 0-.5-.53zM7.81 5l-3 2V3l3 2z" fill="#fff"/></svg><svg width="18" height="18" viewBox="-1 -1 18 18" id="icon-livef" x="36" y="220" xmlns="http://www.w3.org/2000/svg"><g fill-rule="nonzero" fill="none"><path d="M0 0h16v16H0z"/><path d="M1 9h2v6H1V9zm4-8h2v14H5V1zm4 4h2v10H9V5zm4 4h2v6h-2V9z" fill="#666"/></g></svg><svg width="9" height="10" viewBox="-1 -1 9 10" id="icon-living-triangle-darka" x="150" y="134" xmlns="http://www.w3.org/2000/svg"><path d="M0 0l7 4-7 4z" fill="#000" fill-rule="nonzero"/></svg><svg width="9" height="10" viewBox="-1 -1 9 10" id="icon-living-triangle-gray6" x="36" y="274" xmlns="http://www.w3.org/2000/svg"><path d="M0 0l7 4-7 4z" fill="#666" fill-rule="nonzero"/></svg><svg width="9" height="10" viewBox="-1 -1 9 10" id="icon-living-triangle-wh1" x="45" y="274" xmlns="http://www.w3.org/2000/svg"><path d="M0 0l7 4-7 4z" fill="#FFF" fill-rule="nonzero"/></svg><svg width="9" height="10" viewBox="-1 -1 9 10" id="icon-living-trianglec" x="54" y="274" xmlns="http://www.w3.org/2000/svg"><path d="M0 0l7 4-7 4z" fill="#00A4FF" fill-rule="nonzero"/></svg><svg width="18" height="18" viewBox="-1 -1 18 18" id="icon-loadinga" x="287" y="18" xmlns="http://www.w3.org/2000/svg"><g fill-rule="nonzero" fill="none"><path d="M8.773 4.86c-.757 0-1.374-.641-1.374-1.43C7.4 2.642 8.016 2 8.773 2c.757 0 1.373.642 1.373 1.43 0 .789-.616 1.43-1.373 1.43zM5.849 5.997c-.692 0-1.255-.586-1.255-1.306 0-.721.563-1.307 1.255-1.307.693 0 1.254.585 1.254 1.307 0 .72-.562 1.306-1.254 1.306zM4.606 8.952c-.61 0-1.106-.516-1.106-1.152 0-.636.496-1.152 1.106-1.152.61 0 1.106.516 1.106 1.152 0 .636-.495 1.151-1.106 1.152zM5.85 11.88c-.518 0-.938-.437-.938-.977 0-.539.42-.976.938-.977.518.001.937.438.938.977 0 .539-.42.977-.938.977zM8.773 13c-.452 0-.82-.382-.82-.853s.368-.854.82-.854c.452 0 .819.382.82.854 0 .47-.368.853-.82.853zm2.968-1.443a.676.676 0 0 1-.661-.688c0-.38.296-.689.661-.69.366.001.661.31.662.69 0 .38-.296.688-.662.688zm1.216-3.187a.555.555 0 0 1-.543-.565c0-.312.243-.565.543-.565.3 0 .542.253.543.565a.555.555 0 0 1-.543.565zM11.32 4.732c0 .157.08.301.21.38.131.078.292.078.422 0a.442.442 0 0 0 .21-.38.43.43 0 0 0-.42-.438.43.43 0 0 0-.422.438z" fill-opacity=".5" fill="#000"/><path d="M8.773 4.86c-.757 0-1.374-.641-1.374-1.43C7.4 2.642 8.016 2 8.773 2c.757 0 1.373.642 1.373 1.43 0 .789-.616 1.43-1.373 1.43zM5.849 5.997c-.692 0-1.255-.586-1.255-1.306 0-.721.563-1.307 1.255-1.307.693 0 1.254.585 1.254 1.307 0 .72-.562 1.306-1.254 1.306zM4.606 8.952c-.61 0-1.106-.516-1.106-1.152 0-.636.496-1.152 1.106-1.152.61 0 1.106.516 1.106 1.152 0 .636-.495 1.151-1.106 1.152zM5.85 11.88c-.518 0-.938-.437-.938-.977 0-.539.42-.976.938-.977.518.001.937.438.938.977 0 .539-.42.977-.938.977zM8.773 13c-.452 0-.82-.382-.82-.853s.368-.854.82-.854c.452 0 .819.382.82.854 0 .47-.368.853-.82.853zm2.968-1.443a.676.676 0 0 1-.661-.688c0-.38.296-.689.661-.69.366.001.661.31.662.69 0 .38-.296.688-.662.688zm1.216-3.187a.555.555 0 0 1-.543-.565c0-.312.243-.565.543-.565.3 0 .542.253.543.565a.555.555 0 0 1-.543.565zM11.32 4.732c0 .157.08.301.21.38.131.078.292.078.422 0a.442.442 0 0 0 .21-.38.43.43 0 0 0-.42-.438.43.43 0 0 0-.422.438z" fill="#999"/></g></svg><svg width="26" height="26" viewBox="-1 -1 26 26" id="icon-location-m7" x="104" y="124" xmlns="http://www.w3.org/2000/svg"><g fill="none" fill-rule="evenodd"><path d="M0 0h24v24H0z"/><path d="M12 2C8.13 2 5 5.13 5 9c0 5.25 7 13 7 13s7-7.75 7-13c0-3.87-3.13-7-7-7zM7 9c0-2.76 2.24-5 5-5s5 2.24 5 5c0 2.88-2.88 7.19-5 9.88C9.92 16.21 7 11.85 7 9z" fill="#666" fill-rule="nonzero"/><circle fill="#666" cx="12" cy="9" r="2.5"/></g></svg><svg width="18" height="18" viewBox="-1 -1 18 18" id="icon-more-right-actived" x="162" y="220" xmlns="http://www.w3.org/2000/svg"><path fill="#00A4FF" fill-rule="evenodd" d="M5 6l3 2-3 2v2l6-4-6-4z"/></svg><svg width="18" height="18" viewBox="-1 -1 18 18" id="icon-more-right-actived" x="180" y="220" xmlns="http://www.w3.org/2000/svg"><path fill="#00A4FF" fill-rule="evenodd" d="M5 6l3 2-3 2v2l6-4-6-4z"/></svg><svg width="18" height="18" viewBox="-1 -1 18 18" id="icon-more-right-actived" x="198" y="220" xmlns="http://www.w3.org/2000/svg"><path fill="#00A4FF" fill-rule="evenodd" d="M5 6l3 2-3 2v2l6-4-6-4z"/></svg><svg width="18" height="18" viewBox="-1 -1 18 18" id="icon-more-right-normal0" x="216" y="220" xmlns="http://www.w3.org/2000/svg"><path fill="#666" fill-rule="evenodd" d="M5 6l3 2-3 2v2l6-4-6-4z"/></svg><svg width="18" height="18" viewBox="-1 -1 18 18" id="icon-more-right-whiteb" x="251" xmlns="http://www.w3.org/2000/svg"><path fill="#fff" fill-rule="evenodd" d="M5 6l3 2-3 2v2l6-4-6-4z"/></svg><svg width="18" height="18" viewBox="-1 -1 18 18" id="icon-more-right4" x="251" y="18" xmlns="http://www.w3.org/2000/svg"><path fill="#666" fill-rule="evenodd" d="M5 6l3 2-3 2v2l6-4-6-4z"/></svg><svg width="18" height="18" viewBox="-1 -1 18 18" id="icon-more-right4" x="251" y="36" xmlns="http://www.w3.org/2000/svg"><path fill="#666" fill-rule="evenodd" d="M5 6l3 2-3 2v2l6-4-6-4z"/></svg><svg width="20" height="20" viewBox="-1 -1 20 20" id="icon-nav-share-mb1" x="130" y="124" xmlns="http://www.w3.org/2000/svg"><path d="M14.485 2H10V0h8v8h-2V3.314l-7.586 7.585L7 9.485 14.485 2zM16 12h2v6H0V0h6v2H2v14h14v-4z" fill="#FFF" fill-rule="nonzero"/></svg><svg width="18" height="18" viewBox="-1 -1 18 18" id="icon-noticef" x="251" y="72" xmlns="http://www.w3.org/2000/svg"><g fill-rule="nonzero" fill="none"><path d="M0 0h16v16H0z"/><path d="M3.2 12h9.6l-.784-4.274-.016-.18V6a4 4 0 1 0-8 0v1.545l-.016.18L3.2 12z" stroke="#0ABF5B" stroke-width="2"/><path d="M8 0a2 2 0 0 1 2 2v1H6V2a2 2 0 0 1 2-2zM8 16a2 2 0 0 0 2-2H6a2 2 0 0 0 2 2z" fill="#0ABF5B"/></g></svg><svg width="18" height="18" viewBox="-1 -1 18 18" id="icon-numcard-primary5" x="251" y="90" xmlns="http://www.w3.org/2000/svg"><path d="M0 0h16v16H0V0zm2 2v12h12V2H2zm2 5h2v2H4V7zm0 3h2v2H4v-2zm3-3h2v2H7V7zm0 3h2v2H7v-2zm3-3h2v2h-2V7zm0 3h2v2h-2v-2zM4 4h2v2H4V4zm3 0h2v2H7V4zm3 0h2v2h-2V4z" fill="#00A4FF" fill-rule="nonzero"/></svg><svg id="icon-page-arrow-right-primary7" width="18" height="18" viewBox="-1 -1 18 18" x="251" y="108" xmlns="http://www.w3.org/2000/svg"><style>.epst0{fill-rule:evenodd;clip-rule:evenodd;fill:#00a4ff}</style><path id="epXMLID_2_" class="epst0" d="M8 5h1v1h1v1h1v2h-1v1H9v1H8v1H6v-1h1v-1h1V9h1V7H8V6H7V5H6V4h2v1z"/></svg><svg id="icon-page-arrow-right7" width="18" height="18" viewBox="-1 -1 18 18" x="251" y="126" xmlns="http://www.w3.org/2000/svg"><style>.eqst0{fill-rule:evenodd;clip-rule:evenodd;fill:#666}</style><path id="eqXMLID_2_" class="eqst0" d="M8 5h1v1h1v1h1v2h-1v1H9v1H8v1H6v-1h1v-1h1V9h1V7H8V6H7V5H6V4h2v1z"/></svg><svg width="26" height="26" viewBox="-1 -1 26 26" id="icon-profession-m3" x="78" y="124" xmlns="http://www.w3.org/2000/svg"><g fill="none" fill-rule="evenodd"><path d="M0 0h24v24H0z"/><path d="M20 6h-4V4c0-1.11-.89-2-2-2h-4c-1.11 0-2 .89-2 2v2H4c-1.11 0-1.99.89-1.99 2L2 19c0 1.11.89 2 2 2h16c1.11 0 2-.89 2-2V8c0-1.11-.89-2-2-2zM10 4h4v2h-4V4zm10 15H4V8h16v11z" fill="#666" fill-rule="nonzero"/></g></svg><svg width="10" height="10" viewBox="-1 -1 10 10" id="icon-progress-default2" x="63" y="274" xmlns="http://www.w3.org/2000/svg"><circle stroke="#000" stroke-width="2" fill-rule="nonzero" cx="4" cy="4" r="3" fill="none" opacity=".15"/></svg><svg width="10" height="10" viewBox="-1 -1 10 10" id="icon-progress-donec" x="73" y="274" xmlns="http://www.w3.org/2000/svg"><circle fill="#3BB39D" fill-rule="nonzero" cx="4" cy="4" r="4"/></svg><svg width="10" height="10" viewBox="-1 -1 10 10" id="icon-progress-partd" x="83" y="274" xmlns="http://www.w3.org/2000/svg"><g fill="none" fill-rule="nonzero"><circle stroke="#3BB39D" stroke-width="2" cx="4" cy="4" r="3"/><path fill="#3BB39D" d="M1 4h6v2H1z"/></g></svg><svg width="18" height="18" viewBox="-1 -1 18 18" id="icon-qr-primaryd" x="251" y="216" xmlns="http://www.w3.org/2000/svg"><path d="M14 16h-2v-2h-1v2H9V9h2v3h2v2h1v-3h-2V9h4v7h-2zM2 4v1h3V2H4v2H2zM0 0h7v7H0V0zm2 11v3h3v-3H2zM0 9h7v7H0V9zm11-7v3h3V2h-3zM9 0h7v7H9V0z" fill="#00A4FF" fill-rule="nonzero"/></svg><svg width="18" height="18" viewBox="-1 -1 18 18" id="icon-qrc" y="238" xmlns="http://www.w3.org/2000/svg"><path d="M14 16h-2v-2h-1v2H9V9h2v3h2v2h1v-3h-2V9h4v7h-2zM2 4v1h3V2H4v2H2zM0 0h7v7H0V0zm2 11v3h3v-3H2zM0 9h7v7H0V9zm11-7v3h3V2h-3zM9 0h7v7H9V0z" fill="#666" fill-rule="nonzero"/></svg><svg width="18" height="18" viewBox="-1 -1 18 18" id="icon-recommend-active9" x="18" y="238" xmlns="http://www.w3.org/2000/svg"><g fill-rule="nonzero" fill="none"><path d="M2.78 1L1.108 7.693 8 14.586l6.893-6.893L13.219 1H2.781z" stroke="#00A4FF" stroke-width="2"/><path fill="#00A4FF" d="M5 5h6v2H5z"/></g></svg><svg width="18" height="18" viewBox="-1 -1 18 18" id="icon-recommendf" x="36" y="238" xmlns="http://www.w3.org/2000/svg"><g fill-rule="nonzero" fill="none"><path d="M2.78 1L1.108 7.693 8 14.586l6.893-6.893L13.219 1H2.781z" stroke="#666" stroke-width="2"/><path fill="#666" d="M5 5h6v2H5z"/></g></svg><svg width="18" height="18" viewBox="-1 -1 18 18" id="icon-refresh-primary0" x="54" y="238" xmlns="http://www.w3.org/2000/svg"><g fill-rule="nonzero" fill="none"><path d="M0 0h16v16H0z"/><path d="M1.812 11.275L0 12l1-4 4 2-2.253.901a6.002 6.002 0 0 0 11.106-1.576l.903.514a7.003 7.003 0 0 1-12.944 1.436zM13.253 5.1A6.002 6.002 0 0 0 2.147 6.675l-.903-.514a7.003 7.003 0 0 1 12.944-1.436L16 4l-1 4-4-2 2.253-.901z" fill="#00A4FF"/></g></svg><svg width="18" height="18" viewBox="-1 -1 18 18" id="icon-refresh8" x="72" y="238" xmlns="http://www.w3.org/2000/svg"><g fill-rule="nonzero" fill="none"><path d="M0 0h16v16H0z"/><path d="M1.812 11.275L0 12l1-4 4 2-2.253.901a6.002 6.002 0 0 0 11.106-1.576l.903.514a7.003 7.003 0 0 1-12.944 1.436zM13.253 5.1A6.002 6.002 0 0 0 2.147 6.675l-.903-.514a7.003 7.003 0 0 1 12.944-1.436L16 4l-1 4-4-2 2.253-.901z" fill="#666"/></g></svg><svg data-name="图层 1" width="18" height="18" viewBox="-1 -1 18 18" id="icon-reload3" x="90" y="238" xmlns="http://www.w3.org/2000/svg"><path d="M1 8a7 7 0 1 0 7-7 7 7 0 0 0-7 7z" fill="#e1504a"/><path d="M8 11a3 3 0 0 1 0-6 3 3 0 0 1 2.38 1.21L9.25 7.27l3 .37-.19-3-.95.9A4 4 0 0 0 8 4a4 4 0 1 0 3.86 5l-1-.12A3 3 0 0 1 8 11z" fill="#fff"/></svg><svg width="26" height="26" viewBox="-1 -1 26 26" id="icon-salary-m3" y="124" xmlns="http://www.w3.org/2000/svg"><g fill="none" fill-rule="evenodd"><path d="M0 0h24v24H0z"/><path d="M11.5 17.1c-2.06 0-2.87-.92-2.98-2.1h-2.2c.12 2.19 1.76 3.42 3.68 3.83V21h3v-2.15c1.95-.37 3.5-1.5 3.5-3.55 0-2.84-2.43-3.81-4.7-4.4-2.27-.59-3-1.2-3-2.15 0-1.09 1.01-1.85 2.7-1.85 1.78 0 2.44.85 2.5 2.1h2.21c-.07-1.72-1.12-3.3-3.21-3.81V3h-3v2.16c-1.94.42-3.5 1.68-3.5 3.61 0 2.31 1.91 3.46 4.7 4.13 2.5.6 3 1.48 3 2.41 0 .69-.49 1.79-2.7 1.79z" fill="#666"/></g></svg><svg width="18" height="18" viewBox="-298 388 18 18" id="icon-search-primary2" x="126" y="238" xmlns="http://www.w3.org/2000/svg"><path fill="#00A4FF" d="M-282.3 403.3l-2.5-2.5c1-1.1 1.7-2.7 1.7-4.3 0-3.6-2.9-6.5-6.5-6.5-3.5 0-6.4 2.9-6.4 6.5s2.9 6.4 6.4 6.4c1.2 0 2.3-.3 3.2-.9l2.7 2.7c.4.4 1 .4 1.4 0 .4-.4.4-1 0-1.4zm-7.3-2.4c-2.4 0-4.4-2-4.4-4.4s2-4.5 4.4-4.5c2.5 0 4.5 2 4.5 4.5s-2 4.4-4.5 4.4z"/></svg><svg width="18" height="18" viewBox="-298 388 18 18" id="icon-search-primary2" x="144" y="238" xmlns="http://www.w3.org/2000/svg"><path fill="#00A4FF" d="M-282.3 403.3l-2.5-2.5c1-1.1 1.7-2.7 1.7-4.3 0-3.6-2.9-6.5-6.5-6.5-3.5 0-6.4 2.9-6.4 6.5s2.9 6.4 6.4 6.4c1.2 0 2.3-.3 3.2-.9l2.7 2.7c.4.4 1 .4 1.4 0 .4-.4.4-1 0-1.4zm-7.3-2.4c-2.4 0-4.4-2-4.4-4.4s2-4.5 4.4-4.5c2.5 0 4.5 2 4.5 4.5s-2 4.4-4.5 4.4z"/></svg><svg width="18" height="18" viewBox="-298 388 18 18" id="icon-search-whitee" x="162" y="238" xmlns="http://www.w3.org/2000/svg"><path fill="#FFF" d="M-282.3 403.3l-2.5-2.5c1-1.1 1.7-2.7 1.7-4.3 0-3.6-2.9-6.5-6.5-6.5-3.5 0-6.4 2.9-6.4 6.5s2.9 6.4 6.4 6.4c1.2 0 2.3-.3 3.2-.9l2.7 2.7c.4.4 1 .4 1.4 0 .4-.4.4-1 0-1.4zm-7.3-2.4c-2.4 0-4.4-2-4.4-4.4s2-4.5 4.4-4.5c2.5 0 4.5 2 4.5 4.5s-2 4.4-4.5 4.4z"/></svg><svg width="18" height="18" viewBox="-298 388 18 18" id="icon-searchb" x="180" y="238" xmlns="http://www.w3.org/2000/svg"><path fill="#666" d="M-282.3 403.3l-2.5-2.5c1-1.1 1.7-2.7 1.7-4.3 0-3.6-2.9-6.5-6.5-6.5-3.5 0-6.4 2.9-6.4 6.5s2.9 6.4 6.4 6.4c1.2 0 2.3-.3 3.2-.9l2.7 2.7c.4.4 1 .4 1.4 0 .4-.4.4-1 0-1.4zm-7.3-2.4c-2.4 0-4.4-2-4.4-4.4s2-4.5 4.4-4.5c2.5 0 4.5 2 4.5 4.5s-2 4.4-4.5 4.4z"/></svg><svg width="18" height="18" viewBox="-298 388 18 18" id="icon-searchb" x="198" y="238" xmlns="http://www.w3.org/2000/svg"><path fill="#666" d="M-282.3 403.3l-2.5-2.5c1-1.1 1.7-2.7 1.7-4.3 0-3.6-2.9-6.5-6.5-6.5-3.5 0-6.4 2.9-6.4 6.5s2.9 6.4 6.4 6.4c1.2 0 2.3-.3 3.2-.9l2.7 2.7c.4.4 1 .4 1.4 0 .4-.4.4-1 0-1.4zm-7.3-2.4c-2.4 0-4.4-2-4.4-4.4s2-4.5 4.4-4.5c2.5 0 4.5 2 4.5 4.5s-2 4.4-4.5 4.4z"/></svg><svg width="18" height="18" viewBox="-1 -1 18 18" id="icon-share-primary7" x="216" y="238" xmlns="http://www.w3.org/2000/svg"><path d="M12.707 4.707L8.343 9.071 6.93 7.657l4.364-4.364L9 1h6v6l-2.293-2.293zM13 9h2v6H1V1h6v2H3v10h10V9z" fill="#00A4FF" fill-rule="nonzero"/></svg><svg width="18" height="18" viewBox="-1 -1 18 18" id="icon-share-white0" x="234" y="238" xmlns="http://www.w3.org/2000/svg"><path d="M12.707 4.707L8.343 9.071 6.93 7.657l4.364-4.364L9 1h6v6l-2.293-2.293zM13 9h2v6H1V1h6v2H3v10h10V9z" fill="#FFF" fill-rule="nonzero"/></svg><svg width="18" height="18" viewBox="-1 -1 18 18" id="icon-sharef" x="269" xmlns="http://www.w3.org/2000/svg"><path d="M12.707 4.707L8.343 9.071 6.93 7.657l4.364-4.364L9 1h6v6l-2.293-2.293zM13 9h2v6H1V1h6v2H3v10h10V9z" fill="#666" fill-rule="nonzero"/></svg><svg width="18" height="18" viewBox="-1 -1 18 18" id="icon-slider-arrow-right-disabled7" x="269" y="18" xmlns="http://www.w3.org/2000/svg"><path d="M5 1l8 7-8 7V1zm0 11.667L10.333 8 5 3.333v9.334z" fill="#c2c2c2" fill-rule="nonzero"/></svg><svg width="18" height="18" viewBox="-1 -1 18 18" id="icon-slider-arrow-right-primarye" x="269" y="36" xmlns="http://www.w3.org/2000/svg"><path d="M5 1l8 7-8 7V1zm0 11.667L10.333 8 5 3.333v9.334z" fill="#00A4FF" fill-rule="nonzero"/></svg><svg width="18" height="18" viewBox="-1 -1 18 18" id="icon-slider-arrow-right6" x="269" y="54" xmlns="http://www.w3.org/2000/svg"><path d="M5 1l8 7-8 7V1zm0 11.667L10.333 8 5 3.333v9.334z" fill="#000" fill-rule="nonzero"/></svg><svg width="18" height="18" viewBox="-1 -1 18 18" id="icon-sort-arrow-down5" x="269" y="72" xmlns="http://www.w3.org/2000/svg"><g fill="none" fill-rule="evenodd"><path d="M0 0h16v16H0z"/><g fill="#666" fill-rule="nonzero"><path d="M9 12H7V0h2z"/><path d="M8 16L4 8h8z"/></g></g></svg><svg width="18" height="18" viewBox="-1 -1 18 18" id="icon-sort-arrow-up9" x="269" y="90" xmlns="http://www.w3.org/2000/svg"><g fill="none" fill-rule="evenodd"><path d="M0 0h16v16H0z"/><g fill="#666" fill-rule="nonzero"><path d="M9 4H7v12h2z"/><path d="M8 0L4 8h8z"/></g></g></svg><svg width="18" height="18" viewBox="-1 -1 18 18" id="icon-sort-arrow1" x="269" y="108" xmlns="http://www.w3.org/2000/svg"><g fill="none" fill-rule="evenodd"><path d="M9.072 10h2.392L8 16l-3.464-6h2.536V6H4.536L8 0l3.464 6H9.072v4z" fill="#666"/><path d="M0 0h16v16H0z"/></g></svg><svg width="26" height="26" viewBox="-1 -1 26 26" id="icon-success-hole-mc" x="133" y="52" xmlns="http://www.w3.org/2000/svg"><path d="M12 24C5.373 24 0 18.627 0 12S5.373 0 12 0s12 5.373 12 12-5.373 12-12 12zm0-2c5.523 0 10-4.477 10-10S17.523 2 12 2 2 6.477 2 12s4.477 10 10 10zm4.24-14.65l1.52 1.3-6.704 7.82-4.763-4.763 1.414-1.414 3.237 3.236 5.297-6.18z" fill="#0ABF5B" fill-rule="nonzero"/></svg><svg width="26" height="26" viewBox="-1 -1 26 26" id="icon-tel-m8" x="133" xmlns="http://www.w3.org/2000/svg"><g fill="none" fill-rule="evenodd"><path d="M0 0h24v24H0z"/><path d="M20 21c.55 0 1-.45 1-1v-3.49c0-.55-.45-1-1-1-1.24 0-2.45-.2-3.57-.57a.84.84 0 0 0-.31-.05c-.26 0-.51.1-.71.29l-2.2 2.2a15.149 15.149 0 0 1-6.59-6.59l2.2-2.2c.28-.28.36-.67.25-1.02A11.36 11.36 0 0 1 8.5 4c0-.55-.45-1-1-1H4c-.55 0-1 .45-1 1 0 9.39 7.61 17 17 17zm-3.6-3.98c.85.24 1.72.39 2.6.45v1.49c-1.32-.09-2.59-.35-3.8-.75l1.2-1.19zM5.03 5h1.5a13 13 0 0 0 .46 2.59l-1.2 1.2c-.41-1.2-.67-2.47-.76-3.79z" fill="#666" fill-rule="nonzero"/></g></svg><svg width="18" height="18" viewBox="-1 -1 18 18" id="icon-time-dark5" x="269" y="162" xmlns="http://www.w3.org/2000/svg"><g fill="none" fill-rule="evenodd"><circle stroke="#000" cx="8" cy="8" r="7.5"/><path fill="#000" d="M8 3h1v6H8z"/><path fill="#000" d="M9 8v1H3V8z"/><path d="M0 0h16v16H0z"/></g></svg><svg id="icon-toolbar-copyb" width="18" height="18" viewBox="-1 -1 18 18" x="269" y="180" xmlns="http://www.w3.org/2000/svg"><style>.fust0{fill-rule:evenodd;clip-rule:evenodd;fill:#fff}</style><path class="fust0" d="M4.5 15.5v-12h10v12h-10zm8-10h-6v8h6v-8zm-3-3h-6v10h-2V.5h10v2h-2z"/></svg><svg width="18" height="18" viewBox="-1 -1 18 18" id="icon-triangle-down7" x="269" y="198" xmlns="http://www.w3.org/2000/svg"><path fill="#666" d="M12 6H4l4 5z"/></svg><svg width="18" height="18" viewBox="-1 -1 18 18" id="icon-unfold-primarye" x="269" y="216" xmlns="http://www.w3.org/2000/svg"><g fill="#00A4FF" fill-rule="nonzero"><path d="M2 6l6-6 6 6h-2.828L8 2.828 4.828 6H2zM2 10l6 6 6-6h-2.828L8 13.172 4.828 10H2z"/></g></svg><svg width="18" height="18" viewBox="-1 -1 18 18" id="icon-unfold7" x="269" y="234" xmlns="http://www.w3.org/2000/svg"><g fill="#999" fill-rule="nonzero"><path d="M2 6l6-6 6 6h-2.828L8 2.828 4.828 6H2zM2 10l6 6 6-6h-2.828L8 13.172 4.828 10H2z"/></g></svg><svg data-name="图层 1" width="18" height="18" viewBox="-1 -1 18 18" id="icon-verified2" y="256" xmlns="http://www.w3.org/2000/svg"><defs><linearGradient id="fya" x1="-2.214" y1="4.286" x2="-2.214" y2="5.286" gradientTransform="matrix(14 0 0 14 39 -59)" gradientUnits="userSpaceOnUse"><stop offset="0" stop-color="#fbd249"/><stop offset="1" stop-color="#f5a623"/></linearGradient></defs><path fill="url(#fya)" d="M15 1H11.43l-1.14 2.512-4.145 8.009-1.78-8.009h1.333V2.256H1v1.256h1.04L4.579 15h2.237l5.809-11.488h1.238L15 1z"/></svg><svg width="18" height="18" viewBox="-1 -1 18 18" id="icon-vertical-option-primary5" x="18" y="256" xmlns="http://www.w3.org/2000/svg"><g fill-rule="nonzero" fill="none"><circle cx="8" cy="8" r="8"/><path d="M7.5 15a1.5 1.5 0 1 1 0-3 1.5 1.5 0 0 1 0 3zm0-5a1.5 1.5 0 1 1 0-3 1.5 1.5 0 0 1 0 3zm0-5a1.5 1.5 0 1 1 0-3 1.5 1.5 0 0 1 0 3z" fill="#00A4FF"/></g></svg><svg width="18" height="18" viewBox="-1 -1 18 18" id="icon-vertical-option-primary5" x="36" y="256" xmlns="http://www.w3.org/2000/svg"><g fill-rule="nonzero" fill="none"><circle cx="8" cy="8" r="8"/><path d="M7.5 15a1.5 1.5 0 1 1 0-3 1.5 1.5 0 0 1 0 3zm0-5a1.5 1.5 0 1 1 0-3 1.5 1.5 0 0 1 0 3zm0-5a1.5 1.5 0 1 1 0-3 1.5 1.5 0 0 1 0 3z" fill="#00A4FF"/></g></svg><svg width="18" height="18" viewBox="-1 -1 18 18" id="icon-vertical-option5" x="54" y="256" xmlns="http://www.w3.org/2000/svg"><g fill-rule="nonzero" fill="none"><circle cx="8" cy="8" r="8"/><path d="M7.5 15a1.5 1.5 0 1 1 0-3 1.5 1.5 0 0 1 0 3zm0-5a1.5 1.5 0 1 1 0-3 1.5 1.5 0 0 1 0 3zm0-5a1.5 1.5 0 1 1 0-3 1.5 1.5 0 0 1 0 3z" fill="#666"/></g></svg><svg width="18" height="18" viewBox="-1 -1 18 18" id="icon-video-closea" x="72" y="256" xmlns="http://www.w3.org/2000/svg"><g fill="none" fill-rule="evenodd"><path d="M1 1h14v14H1z"/><path d="M8 7.09l3.636-3.635a.643.643 0 0 1 .91.909L8.908 8l3.636 3.636a.643.643 0 0 1-.909.91L8 8.908l-3.636 3.636a.643.643 0 0 1-.91-.909L7.092 8 3.455 4.364a.643.643 0 1 1 .909-.91L8 7.092z" fill="#999" fill-rule="nonzero"/></g></svg><svg id="iocn-page-arrow-left-primary1" width="18" height="18" viewBox="-1 -1 18 18" x="90" y="256" xmlns="http://www.w3.org/2000/svg"><style>.gdst0{fill-rule:evenodd;clip-rule:evenodd;fill:#00a4ff}</style><path id="gdXMLID_2_" class="gdst0" d="M9 11H8v-1H7V9H6V7h1V6h1V5h1V4h2v1h-1v1H9v1H8v2h1v1h1v1h1v1H9v-1z"/></svg><svg id="iocn-page-arrow-left8" width="18" height="18" viewBox="-1 -1 18 18" x="108" y="256" xmlns="http://www.w3.org/2000/svg"><style>.gest0{fill-rule:evenodd;clip-rule:evenodd;fill:#666}</style><path id="geXMLID_2_" class="gest0" d="M9 11H8v-1H7V9H6V7h1V6h1V5h1V4h2v1h-1v1H9v1H8v2h1v1h1v1h1v1H9v-1z"/></svg><svg width="18" height="18" viewBox="-1 -1 18 18" id="jt2" x="126" y="256" xmlns="http://www.w3.org/2000/svg"><path fill="#FFF" d="M8.547 8.5L5 5.16 6.227 4 11 8.5 6.227 13 5 11.84z" fill-rule="evenodd"/></svg><svg width="18" height="18" viewBox="-1 -1 18 18" id="last-page2" x="144" y="256" xmlns="http://www.w3.org/2000/svg"><g fill="#bbb"><path d="M5 12l5-4-5-4zM10 4v8h1V4z"/></g></svg><svg width="18" height="18" viewBox="-1 -1 18 18" id="last-pagef" x="162" y="256" xmlns="http://www.w3.org/2000/svg"><g fill="#333"><path d="M5 12l5-4-5-4zM10 4v8h1V4z"/></g></svg><svg width="18" height="18" viewBox="-1 -1 18 18" id="left-arrow-icon0" x="180" y="256" xmlns="http://www.w3.org/2000/svg"><path fill="#333" d="M10 4v8L5 8z"/></svg><svg width="18" height="18" viewBox="-1 -1 18 18" id="left-arrow-icon7" x="198" y="256" xmlns="http://www.w3.org/2000/svg"><path fill="#bbb" d="M10 4v8L5 8z"/></svg><svg width="9" height="15" viewBox="-1 -1 9 15" id="link-arrow6" x="287" y="250" xmlns="http://www.w3.org/2000/svg"><path d="M4.228 6.5l-4.242 4.243L1.4 12.158l5.657-5.657-1.414-1.415L1.4.844-.014 2.259 4.228 6.5z" fill="#00A4FF" fill-rule="evenodd"/></svg><svg width="9" height="15" viewBox="-1 -1 9 15" id="link-arrowc" x="296" y="250" xmlns="http://www.w3.org/2000/svg"><path d="M4.228 6.5l-4.242 4.243L1.4 12.158l5.657-5.657-1.414-1.415L1.4.844-.014 2.259 4.228 6.5z" fill="#00a4ff" fill-rule="evenodd"/></svg><svg width="9" height="15" viewBox="-1 -1 9 15" id="link-arrowd" x="119" y="68" xmlns="http://www.w3.org/2000/svg"><path d="M4.228 6.5l-4.242 4.243L1.4 12.158l5.657-5.657-1.414-1.415L1.4.844-.014 2.259 4.228 6.5z" fill="#fff" fill-rule="evenodd"/></svg><svg width="12" height="12" viewBox="-1 -1 12 12" id="link-hoverf" x="234" y="220" xmlns="http://www.w3.org/2000/svg"><path d="M5 0l2.146 2.147-2.768 2.767.708.706 2.767-2.766 2.146 2.145V0h-5zM0 0v10h9.999V7h-1v2H1V1H3V0H0z" fill="#00A4FF" fill-rule="evenodd"/></svg><svg width="34" height="34" viewBox="-1 -1 34 34" id="no-discussd" x="99" xmlns="http://www.w3.org/2000/svg"><g fill="#BBB" fill-rule="evenodd"><path d="M14.629 23.771V21.03h2.742v2.742H14.63zm0-5.028V8.457h2.742v10.286H14.63z"/><path d="M16.13 30.629c-8.197 0-14.759-6.562-14.759-14.5A14.7 14.7 0 0 1 16.13 1.371c7.938 0 14.5 6.562 14.5 14.758 0 7.938-6.562 14.5-14.5 14.5M16 0C7.163 0 0 7.163 0 16s7.163 16 16 16 16-7.163 16-16S24.837 0 16 0"/></g></svg><svg width="18" height="18" viewBox="-1 -1 18 18" id="page-next1" x="287" y="36" xmlns="http://www.w3.org/2000/svg"><path fill="#333" d="M12 6H4l4 5z"/></svg><svg width="18" height="18" viewBox="-1 -1 18 18" id="page-prev5" x="287" y="54" xmlns="http://www.w3.org/2000/svg"><path fill="#333" d="M12 10H4l4-5z"/></svg><svg width="18" height="18" viewBox="-1 -1 18 18" id="personal-close-white3" x="287" y="72" xmlns="http://www.w3.org/2000/svg"><g fill="none" fill-rule="evenodd"><path d="M1 1h14v14H1z"/><path d="M8 7.09l3.636-3.635a.643.643 0 0 1 .91.909L8.908 8l3.636 3.636a.643.643 0 0 1-.909.91L8 8.908l-3.636 3.636a.643.643 0 0 1-.91-.909L7.092 8 3.455 4.364a.643.643 0 1 1 .909-.91L8 7.092z" fill="#FFF" fill-rule="nonzero"/></g></svg><svg width="18" height="18" viewBox="-1 -1 18 18" id="personal-closec" x="287" y="90" xmlns="http://www.w3.org/2000/svg"><g fill="none" fill-rule="evenodd"><path d="M1 1h14v14H1z"/><path d="M8 7.09l3.636-3.635a.643.643 0 0 1 .91.909L8.908 8l3.636 3.636a.643.643 0 0 1-.909.91L8 8.908l-3.636 3.636a.643.643 0 0 1-.91-.909L7.092 8 3.455 4.364a.643.643 0 1 1 .909-.91L8 7.092z" fill="#D8D8D8" fill-rule="nonzero"/></g></svg><svg width="18" height="18" viewBox="-1 -1 18 18" id="personal-menu-authentic-primary0" x="287" y="108" xmlns="http://www.w3.org/2000/svg"><g transform="translate(1 2)" stroke="#00A2FF" stroke-width="2" fill="none" fill-rule="evenodd"><circle cx="7" cy="5" r="5"/><path d="M9.46 9.563l1.095 2.35.76-.739 1.053-.106-1.096-2.35-1.812.845zM4.54 9.563l-1.095 2.35-.76-.739-1.053-.106 1.096-2.35 1.812.845z" fill="#D8D8D8"/><path d="M5.13 4L7.1 6l2.03-2"/></g></svg><svg width="18" height="18" viewBox="-1 -1 18 18" id="personal-menu-authentic-white6" x="287" y="126" xmlns="http://www.w3.org/2000/svg"><g transform="translate(1 2)" stroke="#FFF" stroke-width="2" fill="none" fill-rule="evenodd"><circle cx="7" cy="5" r="5"/><path d="M9.46 9.563l1.095 2.35.76-.739 1.053-.106-1.096-2.35-1.812.845zM4.54 9.563l-1.095 2.35-.76-.739-1.053-.106 1.096-2.35 1.812.845z" fill="#FFF"/><path d="M5.13 4L7.1 6l2.03-2"/></g></svg><svg width="18" height="18" viewBox="-1 -1 18 18" id="personal-menu-elearning-primary5" x="287" y="144" xmlns="http://www.w3.org/2000/svg"><g fill="none" fill-rule="evenodd"><path d="M0 0h16v16H0z"/><path stroke="#00A4FF" stroke-width="2" d="M2 2h12v12H2z"/><path d="M10.838 8.462L6.76 10.959A.5.5 0 0 1 6 10.533V5.466a.5.5 0 0 1 .767-.423l4.076 2.57a.5.5 0 0 1-.005.849z" fill="#00A4FF"/></g></svg><svg width="18" height="18" viewBox="-1 -1 18 18" id="personal-menu-elearning-white7" x="287" y="162" xmlns="http://www.w3.org/2000/svg"><g fill="none" fill-rule="evenodd"><path d="M0 0h16v16H0z"/><path stroke="#FFF" stroke-width="2" d="M2 2h12v12H2z"/><path d="M10.838 8.462L6.76 10.959A.5.5 0 0 1 6 10.533V5.466a.5.5 0 0 1 .767-.423l4.076 2.57a.5.5 0 0 1-.005.849z" fill="#FFF"/></g></svg><svg width="18" height="18" viewBox="-1 -1 18 18" id="personal-menu-evaluate-primaryb" x="287" y="180" xmlns="http://www.w3.org/2000/svg"><g stroke="#00A4FF" stroke-width="2" fill="none" fill-rule="evenodd"><path d="M2 2h12v12H2z"/><path d="M3.005 9.005h2.02l1.977-2.992 3.063 3.98h2.943"/></g></svg><svg width="18" height="18" viewBox="-1 -1 18 18" id="personal-menu-evaluate-whiteb" x="287" y="198" xmlns="http://www.w3.org/2000/svg"><g stroke="#FFF" stroke-width="2" fill="none" fill-rule="evenodd"><path d="M2 2h12v12H2z"/><path d="M3.005 9.005h2.02l1.977-2.992 3.063 3.98h2.943"/></g></svg><svg width="18" height="18" viewBox="-1 -1 18 18" id="personal-menu-infor-primary9" x="287" xmlns="http://www.w3.org/2000/svg"><g fill="none" fill-rule="evenodd"><circle cx="3" cy="3" r="3" transform="translate(5 2)" stroke="#00A2FF" stroke-width="2"/><path fill="#00A2FF" d="M9 10h6v2H9zM9 13h6v2H9z"/><path d="M8 9a5 5 0 0 0-4.9 6H1.07A7 7 0 0 1 8 7v2z" fill="#00A2FF" fill-rule="nonzero"/></g></svg><svg width="18" height="18" viewBox="-1 -1 18 18" id="personal-menu-infor-white1" x="252" y="256" xmlns="http://www.w3.org/2000/svg"><g fill="none" fill-rule="evenodd"><circle cx="3" cy="3" r="3" transform="translate(5 2)" stroke="#FFF" stroke-width="2"/><path fill="#FFF" d="M9 10h6v2H9zM9 13h6v2H9z"/><path d="M8 9a5 5 0 0 0-4.9 6H1.07A7 7 0 0 1 8 7v2z" fill="#FFF" fill-rule="nonzero"/></g></svg><svg width="18" height="18" viewBox="-1 -1 18 18" id="personal-menu-lab-primarye" x="234" y="256" xmlns="http://www.w3.org/2000/svg"><g fill="none" fill-rule="evenodd"><path stroke="#00A4FF" stroke-width="2" d="M2 2h12v8H2z"/><path fill="#00A4FF" d="M7 11h2v2H7zM2 13h12v2H2z"/></g></svg><svg width="18" height="18" viewBox="-1 -1 18 18" id="personal-menu-lab-whitec" x="216" y="256" xmlns="http://www.w3.org/2000/svg"><g fill="none" fill-rule="evenodd"><path stroke="#FFF" stroke-width="2" d="M2 2h12v8H2z"/><path fill="#FFF" d="M7 11h2v2H7zM2 13h12v2H2z"/></g></svg><svg width="18" height="18" viewBox="-1 -1 18 18" id="personal-menu-livingcourse-primary5" x="251" y="198" xmlns="http://www.w3.org/2000/svg"><g fill="none" fill-rule="evenodd"><circle stroke="#00A4FF" stroke-width="2" cx="8" cy="6" r="5"/><circle fill="#00A4FF" cx="8" cy="6" r="2"/><path fill="#00A4FF" d="M2 14h12v2H2zM7 11h2v3H7z"/></g></svg><svg width="18" height="18" viewBox="-1 -1 18 18" id="personal-menu-livingcourse-whiteb" x="251" y="180" xmlns="http://www.w3.org/2000/svg"><g fill="none" fill-rule="evenodd"><circle stroke="#FFF" stroke-width="2" cx="8" cy="6" r="5"/><circle fill="#FFF" cx="8" cy="6" r="2"/><path fill="#FFF" d="M2 14h12v2H2zM7 11h2v3H7z"/></g></svg><svg width="18" height="18" viewBox="-1 -1 18 18" id="personal-menu-resume-primary3" x="251" y="162" xmlns="http://www.w3.org/2000/svg"><g fill="none" fill-rule="evenodd"><path stroke="#00A2FF" stroke-width="2" d="M3 2v12h10V5L9.703 2z"/><path stroke="#00A2FF" fill="#D8D8D8" d="M8.5 2.5h1v5h-1z"/><path fill="#00A2FF" d="M8 7h6v2H8z"/></g></svg><svg width="18" height="18" viewBox="-1 -1 18 18" id="personal-menu-resume-white4" x="126" y="220" xmlns="http://www.w3.org/2000/svg"><g fill="none" fill-rule="evenodd"><path stroke="#FFF" stroke-width="2" d="M3 2v12h10V5L9.703 2z"/><path stroke="#FFF" fill="#FFF" d="M8.5 2.5h1v5h-1z"/><path fill="#FFF" d="M8 7h6v2H8z"/></g></svg><svg width="18" height="18" viewBox="-1 -1 18 18" id="personal-menu-todo-primary7" x="108" y="220" xmlns="http://www.w3.org/2000/svg"><g fill="none" fill-rule="evenodd"><path d="M0 0h16v16H0z"/><g fill="#00A4FF"><path d="M1 1h14v2H1zM1 13h14v2H1z"/><path d="M9 8.917V6.874c1.725-.444 3-2.01 3-3.874h2a6.002 6.002 0 0 1-5 5.917zm-2 0A6.002 6.002 0 0 1 2 3h2a4.002 4.002 0 0 0 3 3.874v2.043z" fill-rule="nonzero"/><path d="M9 9.126V7.083c2.838.476 5 2.944 5 5.917h-2a4.002 4.002 0 0 0-3-3.874zm-2 0C5.275 9.57 4 11.136 4 13H2a6.002 6.002 0 0 1 5-5.917v2.043z" fill-rule="nonzero"/></g></g></svg><svg width="18" height="18" viewBox="-1 -1 18 18" id="personal-menu-todo-whitec" x="90" y="220" xmlns="http://www.w3.org/2000/svg"><g fill="none" fill-rule="evenodd"><path d="M0 0h16v16H0z"/><g fill="#FFF"><path d="M1 1h14v2H1zM1 13h14v2H1z"/><path d="M9 8.917V6.874c1.725-.444 3-2.01 3-3.874h2a6.002 6.002 0 0 1-5 5.917zm-2 0A6.002 6.002 0 0 1 2 3h2a4.002 4.002 0 0 0 3 3.874v2.043z" fill-rule="nonzero"/><path d="M9 9.126V7.083c2.838.476 5 2.944 5 5.917h-2a4.002 4.002 0 0 0-3-3.874zm-2 0C5.275 9.57 4 11.136 4 13H2a6.002 6.002 0 0 1 5-5.917v2.043z" fill-rule="nonzero"/></g></g></svg><svg width="18" height="18" viewBox="-1 -1 18 18" id="personal-menu-training-primary7" x="72" y="220" xmlns="http://www.w3.org/2000/svg"><g stroke="#00A4FF" fill="none" fill-rule="evenodd"><path d="M2 2.28v10.19l6 1.5 6-1.5V2.28l-6 1.5-6-1.5z" stroke-width="2"/><path fill="#D8D8D8" d="M7.5 3.5h1v10h-1z"/></g></svg><svg width="18" height="18" viewBox="-1 -1 18 18" id="personal-menu-training-whiteb" x="54" y="220" xmlns="http://www.w3.org/2000/svg"><g stroke="#FFF" fill="none" fill-rule="evenodd"><path d="M2 2.28v10.19l6 1.5 6-1.5V2.28l-6 1.5-6-1.5z" stroke-width="2"/><path fill="#FFF" d="M7.5 3.5h1v10h-1z"/></g></svg><svg width="18" height="18" viewBox="-1 -1 18 18" id="personal-more-right-white1" x="233" y="198" xmlns="http://www.w3.org/2000/svg"><path fill="#FFF" fill-rule="evenodd" d="M5 6l3 2-3 2v2l6-4-6-4z"/></svg><svg width="18" height="18" viewBox="-1 -1 18 18" id="personal-noticef" x="233" xmlns="http://www.w3.org/2000/svg"><g fill-rule="nonzero" fill="none"><path d="M0 0h16v16H0z"/><path d="M3.2 12h9.6l-.784-4.274-.016-.18V6a4 4 0 1 0-8 0v1.545l-.016.18L3.2 12z" stroke="#0ABF5B" stroke-width="2"/><path d="M8 0a2 2 0 0 1 2 2v1H6V2a2 2 0 0 1 2-2zM8 16a2 2 0 0 0 2-2H6a2 2 0 0 0 2 2z" fill="#0ABF5B"/></g></svg><svg id="phonea" width="20" height="20" viewBox="-1 -1 20 20" x="99" y="68" xmlns="http://www.w3.org/2000/svg"><style>.hnst0{fill:#666}</style><g id="hnXMLID_51_"><path id="hnXMLID_52_" class="hnst0" d="M12 7h2c0-1.7-1.3-3-3-3v2c.5 0 1 .5 1 1zm4 0h2c0-3.9-3.1-7-7-7v2c2.8 0 5 2.2 5 5zm1 3h-5l-1 1c-.1.1-.3.2-.4.2C9.2 11.2 6.1 7.9 7 7l1-1V1c0-.6-.4-1-1-1H1C.5 0 0 .5 0 1c.3 11.9 5.1 16.7 17 17 .6 0 1-.4 1-1v-6c0-.5-.5-1-1-1zm-1 6C6.2 15.5 2.5 11.8 2 2h4v3.5L4.7 7c0 .2.1 1 .4 1.8 1 2.5 4.4 4.3 5.9 4.4l1.5-1.2H16v4z"/></g></svg><svg width="20" height="20" viewBox="-1 -1 20 20" id="questionnaire0" x="159" y="80" xmlns="http://www.w3.org/2000/svg"><g fill="#666" fill-rule="nonzero"><path d="M14 11H4v2h10z"/><path d="M3 3v12h12V3H3zM1 1h16v16H1V1z"/><path d="M9 10h5V8h-3zM7.5 9l.7-.7L11 5.5 9.7 4 6.8 6.8 5.4 5.4 4 6.8l2.8 2.8z"/></g></svg><svg data-name="图层 1" width="18" height="18" viewBox="-1 -1 18 18" id="radio-checked-disablede" x="126" y="186" xmlns="http://www.w3.org/2000/svg"><circle cx="8" cy="8" r="7.5" fill="#fff"/><path d="M8 1a7 7 0 1 1-7 7 7 7 0 0 1 7-7m0-1a8 8 0 1 0 8 8 8 8 0 0 0-8-8z" fill="#d2d5d9"/><circle cx="8" cy="8" r="4" fill="#d2d5d9"/></svg><svg data-name="图层 1" width="18" height="18" viewBox="-1 -1 18 18" id="radio-checked4" x="108" y="186" xmlns="http://www.w3.org/2000/svg"><circle cx="8" cy="8" r="7.5" fill="#fff"/><path d="M8 .98a7 7 0 1 1-7 7 7 7 0 0 1 7-7m0-1a8 8 0 1 0 8 8 8 8 0 0 0-8-8z" fill="#00a4ff"/><circle cx="8" cy="8" r="4" fill="#00a4ff"/></svg><svg data-name="图层 1" width="18" height="18" viewBox="-1 -1 18 18" id="radio-disabled0" x="90" y="186" xmlns="http://www.w3.org/2000/svg"><circle cx="8" cy="8" r="7.5" fill="#e4e7eb"/><path d="M8 1a7 7 0 0 1 7 7 7 7 0 0 1-7 7 7 7 0 0 1-7-7 7 7 0 0 1 7-7m0-1a8 8 0 1 0 8 8 8 8 0 0 0-8-8z" fill="#d2d5d9"/></svg><svg data-name="图层 1" width="18" height="18" viewBox="-1 -1 18 18" id="radiod" x="197" y="144" xmlns="http://www.w3.org/2000/svg"><circle cx="8" cy="8" r="7.5" fill="#fff"/><path d="M8 1a7 7 0 1 1-7 7 7 7 0 0 1 7-7m0-1a8 8 0 1 0 8 8 8 8 0 0 0-8-8z" fill="#d2d5d9"/></svg><svg id="researchd" width="20" height="20" viewBox="-1 -1 20 20" x="159" y="20" xmlns="http://www.w3.org/2000/svg"><style>.htst0{fill:#666}</style><g id="htXMLID_55_"><path id="htXMLID_56_" class="htst0" d="M14 12H4v2h10v-2zM0 0v18h18V0H0zm16 16H2V2h14v14zm-7-6h5V8h-3l-2 2zM7.5 9l.7-.7L11 5.5 9.7 4 6.8 6.8 5.4 5.4 4 6.8l2.8 2.8.7-.6z"/></g></svg><svg width="18" height="18" viewBox="-1 -1 18 18" id="right-arrow-icon2" x="179" y="108" xmlns="http://www.w3.org/2000/svg"><path fill="#bbb" d="M6 12V4l5 4z"/></svg><svg width="18" height="18" viewBox="-1 -1 18 18" id="right-arrow-iconb" x="179" y="90" xmlns="http://www.w3.org/2000/svg"><path fill="#333" d="M6 12V4l5 4z"/></svg><svg width="20" height="20" viewBox="-1 -1 20 20" id="service5" x="159" y="60" xmlns="http://www.w3.org/2000/svg"><path d="M2 7h1c0-3.3 2.7-6 6-6s6 2.7 6 6h1c1.1 0 2 .9 2 2v2c0 1.1-.9 2-2 2h-1c0 2.2-1.8 4-4 4H7v-3h4v1c1.1 0 2-.9 2-2V7c0-2.2-1.8-4-4-4S5 4.8 5 7v6H2c-1.1 0-2-.9-2-2V9c0-1.1.9-2 2-2zm14 4V9h-1v2h1zM2 11h1V9H2v2z" fill="#666" fill-rule="nonzero"/></svg><svg id="shoppingb" width="20" height="20" viewBox="-1 -1 20 20" x="159" xmlns="http://www.w3.org/2000/svg"><style>.hxst0{fill-rule:evenodd;clip-rule:evenodd;fill:#666}</style><path class="hxst0" d="M0 18V0h18v18H0zM16 2H2v2h14V2zm0 4H2v10h14V6zm-7 5c1.7 0 3-1.3 3-3h2c0 2.8-2.2 5-5 5s-5-2.2-5-5h2c0 1.7 1.3 3 3 3z"/></svg><svg width="18" height="18" viewBox="-1 -1 18 18" id="star-fulle" x="179" y="36" xmlns="http://www.w3.org/2000/svg"><path fill="#F7BA2A" d="M8 12l-4.702 2.472.898-5.236L.392 5.528l5.257-.764L8 0l2.351 4.764 5.257.764-3.804 3.708.898 5.236z" fill-rule="evenodd"/></svg><svg width="18" height="18" viewBox="-1 -1 18 18" id="star-parte" x="18" y="150" xmlns="http://www.w3.org/2000/svg"><g fill="none" fill-rule="evenodd"><path fill="#F7BA2A" d="M8 12l-4.702 2.472.898-5.236L.392 5.528l5.257-.764L8 0l2.351 4.764 5.257.764-3.804 3.708.898 5.236z"/><path fill="#DADEE6" d="M8 12V0l2.351 4.764 5.257.764-3.804 3.708.898 5.236z"/></g></svg><svg width="18" height="18" viewBox="-1 -1 18 18" id="stard" y="150" xmlns="http://www.w3.org/2000/svg"><path fill="#DADEE6" d="M8 12l-4.702 2.472.898-5.236L.392 5.528l5.257-.764L8 0l2.351 4.764 5.257.764-3.804 3.708.898 5.236z" fill-rule="evenodd"/></svg><svg data-name="图层 1" width="18" height="15" viewBox="-1 -1 18 15" id="videoa" x="36" y="150" xmlns="http://www.w3.org/2000/svg"><path d="M14 .98a1 1 0 0 1 1 1v9a1 1 0 0 1-1 1H2a1 1 0 0 1-1-1v-9a1 1 0 0 1 1-1h12m0-1H2a2 2 0 0 0-2 2v9a2 2 0 0 0 2 2h12a2 2 0 0 0 2-2v-9a2 2 0 0 0-2-2z" fill="#7c848e"/><path d="M10.16 6.76L6.47 8.98A.3.3 0 0 1 6 8.69V4.31a.3.3 0 0 1 .45-.26l3.7 2.19a.3.3 0 0 1 .01.52z" fill="#7c848e"/></svg><svg width="34" height="34" viewBox="-1 -1 34 34" id="welfare-icon-code3" x="34" y="56" xmlns="http://www.w3.org/2000/svg"><path d="M2 2h28v4H2V2zm0 6h28v22H2V8zm6.667 11L12 15.429 10.667 14 6 19l4.667 5L12 22.571 8.667 19zm14.666 0L20 22.571 21.333 24 26 19l-4.667-5L20 15.429 23.333 19zm-7.005-5.088L13.74 23.57l1.932.517 2.588-9.659-1.932-.517z" fill="#FFF" fill-rule="nonzero"/></svg><svg width="34" height="34" viewBox="-1 -1 34 34" id="welfare-icon-pdfd" y="90" xmlns="http://www.w3.org/2000/svg"><g fill="#FFF" fill-rule="nonzero"><path d="M3 0h18v8h8v7H3z"/><path d="M23 0l6 6h-6zM1 17h30v15H1V17zm4 2H3v11h2v-3h2a4 4 0 1 0 0-8H5zm0 2h2a2 2 0 1 1 0 4H5v-4zm18 5h6v-2h-6v-3h6v-2h-8v11h2v-4zm-9-5h2a2 2 0 0 1 2 2v3a2 2 0 0 1-2 2h-2v-7zm-2-2v11h4a4 4 0 0 0 4-4v-3a4 4 0 0 0-4-4h-4z"/></g></svg><svg width="34" height="34" viewBox="-1 -1 34 34" id="welfare-icon-pic5" x="99" y="34" xmlns="http://www.w3.org/2000/svg"><path d="M28 18.5V4H4v18.778L11 15l4.036 3.784L22 11l6 7.5zm2 7V30H2v-5 2.5V2h28v28H5l10.036-11.216zM9.5 12a2.5 2.5 0 1 0 0-5 2.5 2.5 0 0 0 0 5z" fill="#FFF" fill-rule="nonzero"/></svg><svg width="34" height="34" viewBox="-1 -1 34 34" id="welfare-icon-video9" x="34" y="90" xmlns="http://www.w3.org/2000/svg"><g fill="#FFF" fill-rule="nonzero"><path d="M2 26h28v4H2zM2 2h28v22H2V2zm11 6v10l8-5-8-5z"/></g></svg><svg width="34" height="34" viewBox="-1 -1 34 34" id="welfare-icon-wechate" y="56" xmlns="http://www.w3.org/2000/svg"><g fill="#FFF" fill-rule="evenodd"><path d="M25.636 18.725a1.294 1.294 0 0 1-1.291-1.307c0-.727.574-1.308 1.29-1.308.718 0 1.292.581 1.292 1.308 0 .69-.574 1.307-1.291 1.307m-6.364 0a1.294 1.294 0 0 1-1.291-1.307c0-.727.573-1.308 1.29-1.308.718 0 1.292.581 1.292 1.308 0 .69-.574 1.307-1.291 1.307m9.444 7.34C30.729 24.598 32 22.415 32 20.017 32 15.579 27.762 12 22.5 12S13 15.579 13 20.017c0 4.438 4.238 8.017 9.5 8.017 1.095 0 2.119-.143 3.108-.43.07-.036.176-.036.282-.036.177 0 .353.072.495.144l2.083 1.216c.071.036.106.072.177.072a.319.319 0 0 0 .318-.322c0-.072-.035-.143-.035-.25 0-.036-.283-1.003-.424-1.611-.036-.072-.036-.143-.036-.215a.508.508 0 0 1 .248-.537"/><path d="M15.333 10.89c-.835 0-1.496-.649-1.496-1.468 0-.82.661-1.468 1.496-1.468s1.496.649 1.496 1.468c0 .785-.66 1.468-1.496 1.468m-7.666 0c-.835 0-1.496-.649-1.496-1.468 0-.82.66-1.468 1.496-1.468.835 0 1.496.649 1.496 1.468 0 .785-.661 1.468-1.496 1.468M11.59 3C5.203 3 0 7.21 0 12.439c0 2.842 1.543 5.403 4.019 7.122.18.14.323.351.323.632 0 .07-.036.175-.036.246-.18.701-.503 1.86-.538 1.894-.036.106-.072.176-.072.281 0 .21.18.386.394.386a.518.518 0 0 0 .216-.07l2.547-1.439a1.23 1.23 0 0 1 .61-.175c.108 0 .216 0 .323.035 1.184.316 2.476.526 3.768.526h.646a7.14 7.14 0 0 1-.395-2.316c0-4.736 4.736-8.596 10.55-8.596H23C22.175 6.439 17.367 3 11.59 3"/></g></svg></svg>